<svg width="32" height="33" viewBox="0 0 32 33" fill="none" xmlns="http://www.w3.org/2000/svg">
<g id="Solid/32/ArrowRight">
<g id="ArrowRight">
<path id="Vector" d="M17.2928 26.3282C17.1054 26.1406 17.0001 25.8863 17.0001 25.6211C17.0001 25.3559 17.1054 25.1016 17.2928 24.914L24.5858 17.6211H5C4.73478 17.6211 4.48043 17.5158 4.29289 17.3282C4.10536 17.1407 4 16.8863 4 16.6211C4 16.3559 4.10536 16.1015 4.29289 15.914C4.48043 15.7265 4.73478 15.6211 5 15.6211H24.5858L17.2928 8.32821C17.2 8.23534 17.1263 8.1251 17.0761 8.00377C17.0258 7.88244 17 7.7524 17 7.62107C17 7.48975 17.0259 7.35971 17.0761 7.23838C17.1264 7.11706 17.2 7.00682 17.2929 6.91396C17.3858 6.82111 17.496 6.74745 17.6173 6.6972C17.7387 6.64695 17.8687 6.62109 18 6.62109C18.1314 6.6211 18.2614 6.64697 18.3827 6.69723C18.5041 6.74749 18.6143 6.82116 18.7072 6.91402L27.7072 15.914C27.7104 15.9173 27.7131 15.9209 27.7163 15.9242C27.7361 15.9444 27.7552 15.9652 27.7732 15.9871C27.7832 15.9993 27.792 16.0122 27.8014 16.0248C27.8115 16.0384 27.822 16.0517 27.8315 16.0658C27.8412 16.0803 27.8497 16.0954 27.8586 16.1104C27.8664 16.1234 27.8746 16.1362 27.8818 16.1497C27.8898 16.1647 27.8967 16.1802 27.9039 16.1955C27.9107 16.2098 27.9178 16.2238 27.9238 16.2384C27.9299 16.2532 27.9349 16.2683 27.9403 16.2833C27.9459 16.2991 27.952 16.3147 27.9569 16.3308C27.9614 16.3458 27.9647 16.361 27.9685 16.3761C27.9727 16.3926 27.9773 16.409 27.9806 16.4257C27.9841 16.4432 27.9861 16.4608 27.9887 16.4783C27.9908 16.4931 27.9936 16.5075 27.995 16.5224C27.9983 16.5553 28 16.5882 28 16.6211C28 16.6541 27.9983 16.687 27.995 16.7198C27.9936 16.7347 27.9908 16.7492 27.9887 16.7639C27.9862 16.7815 27.9841 16.799 27.9806 16.8165C27.9773 16.8333 27.9727 16.8496 27.9685 16.8661C27.9647 16.8812 27.9614 16.8964 27.9569 16.9114C27.952 16.9275 27.9459 16.9431 27.9403 16.9589C27.9349 16.9739 27.9299 16.989 27.9238 17.0038C27.9178 17.0184 27.9106 17.0324 27.9039 17.0467C27.8967 17.062 27.8898 17.0775 27.8818 17.0926C27.8746 17.106 27.8664 17.1188 27.8586 17.1319C27.8497 17.1468 27.8412 17.162 27.8315 17.1765C27.822 17.1906 27.8115 17.2039 27.8014 17.2174C27.792 17.23 27.7832 17.2429 27.7732 17.2552C27.7549 17.2774 27.7354 17.2986 27.7153 17.3192C27.7124 17.3221 27.7101 17.3253 27.7072 17.3282L18.7072 26.3282C18.6143 26.4211 18.504 26.4947 18.3827 26.545C18.2614 26.5953 18.1313 26.6211 18 26.6211C17.8687 26.6211 17.7386 26.5953 17.6173 26.545C17.496 26.4947 17.3857 26.4211 17.2928 26.3282Z" fill="white"/>
</g>
</g>
</svg>
