<svg width="58" height="66" viewBox="0 0 58 66" fill="none" xmlns="http://www.w3.org/2000/svg">
<path id="Vector" d="M57.5 10.6C57.5 8.39086 55.7091 6.6 53.5 6.6H40.7748C39.0717 6.6 37.6173 5.46905 36.6389 4.07499C34.9103 1.61199 32.1393 0 29 0C25.8607 0 23.0897 1.61199 21.3611 4.075C20.3827 5.46905 18.9283 6.6 17.2252 6.6H4.5C2.29086 6.6 0.5 8.39086 0.5 10.6V62C0.5 64.2091 2.29086 66 4.5 66H53.5C55.7091 66 57.5 64.2091 57.5 62V10.6ZM29 6.6C30.7417 6.6 32.1667 8.085 32.1667 9.9C32.1667 11.715 30.7417 13.2 29 13.2C27.2583 13.2 25.8333 11.715 25.8333 9.9C25.8333 8.085 27.2583 6.6 29 6.6ZM35.3333 49.5C35.3333 51.3225 33.8559 52.8 32.0333 52.8H16.4667C14.6441 52.8 13.1667 51.3225 13.1667 49.5C13.1667 47.6775 14.6441 46.2 16.4667 46.2H32.0333C33.8559 46.2 35.3333 47.6775 35.3333 49.5ZM44.8333 36.3C44.8333 38.1225 43.3559 39.6 41.5333 39.6H16.4667C14.6441 39.6 13.1667 38.1225 13.1667 36.3C13.1667 34.4775 14.6441 33 16.4667 33H41.5333C43.3559 33 44.8333 34.4775 44.8333 36.3ZM44.8333 23.1C44.8333 24.9225 43.3559 26.4 41.5333 26.4H16.4667C14.6441 26.4 13.1667 24.9225 13.1667 23.1C13.1667 21.2775 14.6441 19.8 16.4667 19.8H41.5333C43.3559 19.8 44.8333 21.2775 44.8333 23.1Z" fill="url(#paint0_linear_104_22)"/>
<defs>
<linearGradient id="paint0_linear_104_22" x1="29" y1="0" x2="29" y2="66" gradientUnits="userSpaceOnUse">
<stop stop-color="#FD4F85"/>
<stop offset="1" stop-color="#FE8F8B"/>
</linearGradient>
</defs>
</svg>
