<svg width="1440" height="1431" viewBox="0 0 1440 1431" fill="none" xmlns="http://www.w3.org/2000/svg">
<path d="M-2.86826 22.8023L39.5 0.564686L81.8683 22.8023V67.1977L39.5 89.4353L-2.86826 67.1977V22.8023Z" stroke="#E9E9E9"/>
<path d="M82.1317 22.8023L124.5 0.564686L166.868 22.8023V67.1977L124.5 89.4353L82.1317 67.1977V22.8023Z" stroke="#E9E9E9"/>
<path d="M167.132 22.8023L209.5 0.564686L251.868 22.8023V67.1977L209.5 89.4353L167.132 67.1977V22.8023Z" stroke="#E9E9E9"/>
<path d="M252.132 22.8023L294.5 0.564686L336.868 22.8023V67.1977L294.5 89.4353L252.132 67.1977V22.8023Z" stroke="#E9E9E9"/>
<path d="M337.132 22.8023L379.5 0.564686L421.868 22.8023V67.1977L379.5 89.4353L337.132 67.1977V22.8023Z" stroke="#E9E9E9"/>
<path d="M422.132 22.8023L464.5 0.564686L506.868 22.8023V67.1977L464.5 89.4353L422.132 67.1977V22.8023Z" stroke="#E9E9E9"/>
<path d="M507.132 22.8023L549.5 0.564686L591.868 22.8023V67.1977L549.5 89.4353L507.132 67.1977V22.8023Z" stroke="#E9E9E9"/>
<path d="M592.132 22.8023L634.5 0.564686L676.868 22.8023V67.1977L634.5 89.4353L592.132 67.1977V22.8023Z" stroke="#E9E9E9"/>
<path d="M677.132 22.8023L719.5 0.564686L761.868 22.8023V67.1977L719.5 89.4353L677.132 67.1977V22.8023Z" stroke="#E9E9E9"/>
<path d="M762.132 22.8023L804.5 0.564686L846.868 22.8023V67.1977L804.5 89.4353L762.132 67.1977V22.8023Z" stroke="#E9E9E9"/>
<path d="M847.132 22.8023L889.5 0.564686L931.868 22.8023V67.1977L889.5 89.4353L847.132 67.1977V22.8023Z" stroke="#E9E9E9"/>
<path d="M932.132 22.8023L974.5 0.564686L1016.87 22.8023V67.1977L974.5 89.4353L932.132 67.1977V22.8023Z" stroke="#E9E9E9"/>
<path d="M1017.13 22.8023L1059.5 0.564686L1101.87 22.8023V67.1977L1059.5 89.4353L1017.13 67.1977V22.8023Z" stroke="#E9E9E9"/>
<path d="M1102.13 22.8023L1144.5 0.564686L1186.87 22.8023V67.1977L1144.5 89.4353L1102.13 67.1977V22.8023Z" stroke="#E9E9E9"/>
<path d="M1187.13 22.8023L1229.5 0.564686L1271.87 22.8023V67.1977L1229.5 89.4353L1187.13 67.1977V22.8023Z" stroke="#E9E9E9"/>
<path d="M1272.13 22.8023L1314.5 0.564686L1356.87 22.8023V67.1977L1314.5 89.4353L1272.13 67.1977V22.8023Z" stroke="#E9E9E9"/>
<path d="M1357.13 22.8023L1399.5 0.564686L1441.87 22.8023V67.1977L1399.5 89.4353L1357.13 67.1977V22.8023Z" stroke="#E9E9E9"/>
<path d="M-45.3683 88.8023L-3 66.5647L39.3683 88.8023V133.198L-3 155.435L-45.3683 133.198V88.8023Z" stroke="#E9E9E9"/>
<path d="M39.6317 88.8023L82 66.5647L124.368 88.8023V133.198L82 155.435L39.6317 133.198V88.8023Z" stroke="#E9E9E9"/>
<path d="M124.632 88.8023L167 66.5647L209.368 88.8023V133.198L167 155.435L124.632 133.198V88.8023Z" stroke="#E9E9E9"/>
<path d="M209.632 88.8023L252 66.5647L294.368 88.8023V133.198L252 155.435L209.632 133.198V88.8023Z" stroke="#E9E9E9"/>
<path d="M294.632 88.8023L337 66.5647L379.368 88.8023V133.198L337 155.435L294.632 133.198V88.8023Z" stroke="#E9E9E9"/>
<path d="M379.632 88.8023L422 66.5647L464.368 88.8023V133.198L422 155.435L379.632 133.198V88.8023Z" stroke="#E9E9E9"/>
<path d="M464.632 88.8023L507 66.5647L549.368 88.8023V133.198L507 155.435L464.632 133.198V88.8023Z" stroke="#E9E9E9"/>
<path d="M549.632 88.8023L592 66.5647L634.368 88.8023V133.198L592 155.435L549.632 133.198V88.8023Z" stroke="#E9E9E9"/>
<path d="M634.632 88.8023L677 66.5647L719.368 88.8023V133.198L677 155.435L634.632 133.198V88.8023Z" stroke="#E9E9E9"/>
<path d="M719.632 88.8023L762 66.5647L804.368 88.8023V133.198L762 155.435L719.632 133.198V88.8023Z" stroke="#E9E9E9"/>
<path d="M804.632 88.8023L847 66.5647L889.368 88.8023V133.198L847 155.435L804.632 133.198V88.8023Z" stroke="#E9E9E9"/>
<path d="M889.632 88.8023L932 66.5647L974.368 88.8023V133.198L932 155.435L889.632 133.198V88.8023Z" stroke="#E9E9E9"/>
<path d="M974.632 88.8023L1017 66.5647L1059.37 88.8023V133.198L1017 155.435L974.632 133.198V88.8023Z" stroke="#E9E9E9"/>
<path d="M1059.63 88.8023L1102 66.5647L1144.37 88.8023V133.198L1102 155.435L1059.63 133.198V88.8023Z" stroke="#E9E9E9"/>
<path d="M1144.63 88.8023L1187 66.5647L1229.37 88.8023V133.198L1187 155.435L1144.63 133.198V88.8023Z" stroke="#E9E9E9"/>
<path d="M1229.63 88.8023L1272 66.5647L1314.37 88.8023V133.198L1272 155.435L1229.63 133.198V88.8023Z" stroke="#E9E9E9"/>
<path d="M1314.63 88.8023L1357 66.5647L1399.37 88.8023V133.198L1357 155.435L1314.63 133.198V88.8023Z" stroke="#E9E9E9"/>
<path d="M1399.63 88.8023L1442 66.5647L1484.37 88.8023V133.198L1442 155.435L1399.63 133.198V88.8023Z" stroke="#E9E9E9"/>
<path d="M-2.86826 154.802L39.5 132.565L81.8683 154.802V199.198L39.5 221.435L-2.86826 199.198V154.802Z" stroke="#E9E9E9"/>
<path d="M82.1317 154.802L124.5 132.565L166.868 154.802V199.198L124.5 221.435L82.1317 199.198V154.802Z" stroke="#E9E9E9"/>
<path d="M167.132 154.802L209.5 132.565L251.868 154.802V199.198L209.5 221.435L167.132 199.198V154.802Z" stroke="#E9E9E9"/>
<path d="M252.132 154.802L294.5 132.565L336.868 154.802V199.198L294.5 221.435L252.132 199.198V154.802Z" stroke="#E9E9E9"/>
<path d="M337.132 154.802L379.5 132.565L421.868 154.802V199.198L379.5 221.435L337.132 199.198V154.802Z" stroke="#E9E9E9"/>
<path d="M422.132 154.802L464.5 132.565L506.868 154.802V199.198L464.5 221.435L422.132 199.198V154.802Z" stroke="#E9E9E9"/>
<path d="M507.132 154.802L549.5 132.565L591.868 154.802V199.198L549.5 221.435L507.132 199.198V154.802Z" stroke="#E9E9E9"/>
<path d="M592.132 154.802L634.5 132.565L676.868 154.802V199.198L634.5 221.435L592.132 199.198V154.802Z" stroke="#E9E9E9"/>
<path d="M677.132 154.802L719.5 132.565L761.868 154.802V199.198L719.5 221.435L677.132 199.198V154.802Z" stroke="#E9E9E9"/>
<path d="M762.132 154.802L804.5 132.565L846.868 154.802V199.198L804.5 221.435L762.132 199.198V154.802Z" stroke="#E9E9E9"/>
<path d="M847.132 154.802L889.5 132.565L931.868 154.802V199.198L889.5 221.435L847.132 199.198V154.802Z" stroke="#E9E9E9"/>
<path d="M932.132 154.802L974.5 132.565L1016.87 154.802V199.198L974.5 221.435L932.132 199.198V154.802Z" stroke="#E9E9E9"/>
<path d="M1017.13 154.802L1059.5 132.565L1101.87 154.802V199.198L1059.5 221.435L1017.13 199.198V154.802Z" stroke="#E9E9E9"/>
<path d="M1102.13 154.802L1144.5 132.565L1186.87 154.802V199.198L1144.5 221.435L1102.13 199.198V154.802Z" stroke="#E9E9E9"/>
<path d="M1187.13 154.802L1229.5 132.565L1271.87 154.802V199.198L1229.5 221.435L1187.13 199.198V154.802Z" stroke="#E9E9E9"/>
<path d="M1272.13 154.802L1314.5 132.565L1356.87 154.802V199.198L1314.5 221.435L1272.13 199.198V154.802Z" stroke="#E9E9E9"/>
<path d="M1357.13 154.802L1399.5 132.565L1441.87 154.802V199.198L1399.5 221.435L1357.13 199.198V154.802Z" stroke="#E9E9E9"/>
<path d="M-45.3683 220.802L-3 198.565L39.3683 220.802V265.198L-3 287.435L-45.3683 265.198V220.802Z" stroke="#E9E9E9"/>
<path d="M39.6317 220.802L82 198.565L124.368 220.802V265.198L82 287.435L39.6317 265.198V220.802Z" stroke="#E9E9E9"/>
<path d="M124.632 220.802L167 198.565L209.368 220.802V265.198L167 287.435L124.632 265.198V220.802Z" stroke="#E9E9E9"/>
<path d="M209.632 220.802L252 198.565L294.368 220.802V265.198L252 287.435L209.632 265.198V220.802Z" stroke="#E9E9E9"/>
<path d="M294.632 220.802L337 198.565L379.368 220.802V265.198L337 287.435L294.632 265.198V220.802Z" stroke="#E9E9E9"/>
<path d="M379.632 220.802L422 198.565L464.368 220.802V265.198L422 287.435L379.632 265.198V220.802Z" stroke="#E9E9E9"/>
<path d="M464.632 220.802L507 198.565L549.368 220.802V265.198L507 287.435L464.632 265.198V220.802Z" stroke="#E9E9E9"/>
<path d="M549.632 220.802L592 198.565L634.368 220.802V265.198L592 287.435L549.632 265.198V220.802Z" stroke="#E9E9E9"/>
<path d="M634.632 220.802L677 198.565L719.368 220.802V265.198L677 287.435L634.632 265.198V220.802Z" stroke="#E9E9E9"/>
<path d="M719.632 220.802L762 198.565L804.368 220.802V265.198L762 287.435L719.632 265.198V220.802Z" stroke="#E9E9E9"/>
<path d="M804.632 220.802L847 198.565L889.368 220.802V265.198L847 287.435L804.632 265.198V220.802Z" stroke="#E9E9E9"/>
<path d="M889.632 220.802L932 198.565L974.368 220.802V265.198L932 287.435L889.632 265.198V220.802Z" stroke="#E9E9E9"/>
<path d="M974.632 220.802L1017 198.565L1059.37 220.802V265.198L1017 287.435L974.632 265.198V220.802Z" stroke="#E9E9E9"/>
<path d="M1059.63 220.802L1102 198.565L1144.37 220.802V265.198L1102 287.435L1059.63 265.198V220.802Z" stroke="#E9E9E9"/>
<path d="M1144.63 220.802L1187 198.565L1229.37 220.802V265.198L1187 287.435L1144.63 265.198V220.802Z" stroke="#E9E9E9"/>
<path d="M1229.63 220.802L1272 198.565L1314.37 220.802V265.198L1272 287.435L1229.63 265.198V220.802Z" stroke="#E9E9E9"/>
<path d="M1314.63 220.802L1357 198.565L1399.37 220.802V265.198L1357 287.435L1314.63 265.198V220.802Z" stroke="#E9E9E9"/>
<path d="M1399.63 220.802L1442 198.565L1484.37 220.802V265.198L1442 287.435L1399.63 265.198V220.802Z" stroke="#E9E9E9"/>
<path d="M-2.86826 286.802L39.5 264.565L81.8683 286.802V331.198L39.5 353.435L-2.86826 331.198V286.802Z" stroke="#E9E9E9"/>
<path d="M82.1317 286.802L124.5 264.565L166.868 286.802V331.198L124.5 353.435L82.1317 331.198V286.802Z" stroke="#E9E9E9"/>
<path d="M167.132 286.802L209.5 264.565L251.868 286.802V331.198L209.5 353.435L167.132 331.198V286.802Z" stroke="#E9E9E9"/>
<path d="M252.132 286.802L294.5 264.565L336.868 286.802V331.198L294.5 353.435L252.132 331.198V286.802Z" fill="#F1F1F1" stroke="#E9E9E9"/>
<path d="M337.132 286.802L379.5 264.565L421.868 286.802V331.198L379.5 353.435L337.132 331.198V286.802Z" stroke="#E9E9E9"/>
<path d="M422.132 286.802L464.5 264.565L506.868 286.802V331.198L464.5 353.435L422.132 331.198V286.802Z" stroke="#E9E9E9"/>
<path d="M507.132 286.802L549.5 264.565L591.868 286.802V331.198L549.5 353.435L507.132 331.198V286.802Z" stroke="#E9E9E9"/>
<path d="M592.132 286.802L634.5 264.565L676.868 286.802V331.198L634.5 353.435L592.132 331.198V286.802Z" stroke="#E9E9E9"/>
<path d="M677.132 286.802L719.5 264.565L761.868 286.802V331.198L719.5 353.435L677.132 331.198V286.802Z" stroke="#E9E9E9"/>
<path d="M762.132 286.802L804.5 264.565L846.868 286.802V331.198L804.5 353.435L762.132 331.198V286.802Z" stroke="#E9E9E9"/>
<path d="M847.132 286.802L889.5 264.565L931.868 286.802V331.198L889.5 353.435L847.132 331.198V286.802Z" stroke="#E9E9E9"/>
<path d="M932.132 286.802L974.5 264.565L1016.87 286.802V331.198L974.5 353.435L932.132 331.198V286.802Z" stroke="#E9E9E9"/>
<path d="M1017.13 286.802L1059.5 264.565L1101.87 286.802V331.198L1059.5 353.435L1017.13 331.198V286.802Z" stroke="#E9E9E9"/>
<path d="M1102.13 286.802L1144.5 264.565L1186.87 286.802V331.198L1144.5 353.435L1102.13 331.198V286.802Z" fill="#F1F1F1" stroke="#E9E9E9"/>
<path d="M1187.13 286.802L1229.5 264.565L1271.87 286.802V331.198L1229.5 353.435L1187.13 331.198V286.802Z" stroke="#E9E9E9"/>
<path d="M1272.13 286.802L1314.5 264.565L1356.87 286.802V331.198L1314.5 353.435L1272.13 331.198V286.802Z" stroke="#E9E9E9"/>
<path d="M1357.13 286.802L1399.5 264.565L1441.87 286.802V331.198L1399.5 353.435L1357.13 331.198V286.802Z" stroke="#E9E9E9"/>
<path d="M-45.3683 352.802L-3 330.565L39.3683 352.802V397.198L-3 419.435L-45.3683 397.198V352.802Z" stroke="#E9E9E9"/>
<path d="M39.6317 352.802L82 330.565L124.368 352.802V397.198L82 419.435L39.6317 397.198V352.802Z" stroke="#E9E9E9"/>
<path d="M124.632 352.802L167 330.565L209.368 352.802V397.198L167 419.435L124.632 397.198V352.802Z" stroke="#E9E9E9"/>
<path d="M209.632 352.802L252 330.565L294.368 352.802V397.198L252 419.435L209.632 397.198V352.802Z" stroke="#E9E9E9"/>
<path d="M294.632 352.802L337 330.565L379.368 352.802V397.198L337 419.435L294.632 397.198V352.802Z" stroke="#E9E9E9"/>
<path d="M379.632 352.802L422 330.565L464.368 352.802V397.198L422 419.435L379.632 397.198V352.802Z" stroke="#E9E9E9"/>
<path d="M464.632 352.802L507 330.565L549.368 352.802V397.198L507 419.435L464.632 397.198V352.802Z" stroke="#E9E9E9"/>
<path d="M549.632 352.802L592 330.565L634.368 352.802V397.198L592 419.435L549.632 397.198V352.802Z" stroke="#E9E9E9"/>
<path d="M634.632 352.802L677 330.565L719.368 352.802V397.198L677 419.435L634.632 397.198V352.802Z" stroke="#E9E9E9"/>
<path d="M719.632 352.802L762 330.565L804.368 352.802V397.198L762 419.435L719.632 397.198V352.802Z" stroke="#E9E9E9"/>
<path d="M804.632 352.802L847 330.565L889.368 352.802V397.198L847 419.435L804.632 397.198V352.802Z" stroke="#E9E9E9"/>
<path d="M889.632 352.802L932 330.565L974.368 352.802V397.198L932 419.435L889.632 397.198V352.802Z" stroke="#E9E9E9"/>
<path d="M974.632 352.802L1017 330.565L1059.37 352.802V397.198L1017 419.435L974.632 397.198V352.802Z" stroke="#E9E9E9"/>
<path d="M1059.63 352.802L1102 330.565L1144.37 352.802V397.198L1102 419.435L1059.63 397.198V352.802Z" stroke="#E9E9E9"/>
<path d="M1144.63 352.802L1187 330.565L1229.37 352.802V397.198L1187 419.435L1144.63 397.198V352.802Z" stroke="#E9E9E9"/>
<path d="M1229.63 352.802L1272 330.565L1314.37 352.802V397.198L1272 419.435L1229.63 397.198V352.802Z" stroke="#E9E9E9"/>
<path d="M1314.63 352.802L1357 330.565L1399.37 352.802V397.198L1357 419.435L1314.63 397.198V352.802Z" stroke="#E9E9E9"/>
<path d="M1399.63 352.802L1442 330.565L1484.37 352.802V397.198L1442 419.435L1399.63 397.198V352.802Z" stroke="#E9E9E9"/>
<path d="M-2.86826 418.802L39.5 396.565L81.8683 418.802V463.198L39.5 485.435L-2.86826 463.198V418.802Z" stroke="#E9E9E9"/>
<path d="M82.1317 418.802L124.5 396.565L166.868 418.802V463.198L124.5 485.435L82.1317 463.198V418.802Z" stroke="#E9E9E9"/>
<path d="M167.132 418.802L209.5 396.565L251.868 418.802V463.198L209.5 485.435L167.132 463.198V418.802Z" stroke="#E9E9E9"/>
<path d="M252.132 418.802L294.5 396.565L336.868 418.802V463.198L294.5 485.435L252.132 463.198V418.802Z" stroke="#E9E9E9"/>
<path d="M337.132 418.802L379.5 396.565L421.868 418.802V463.198L379.5 485.435L337.132 463.198V418.802Z" stroke="#E9E9E9"/>
<path d="M422.132 418.802L464.5 396.565L506.868 418.802V463.198L464.5 485.435L422.132 463.198V418.802Z" stroke="#E9E9E9"/>
<path d="M507.132 418.802L549.5 396.565L591.868 418.802V463.198L549.5 485.435L507.132 463.198V418.802Z" stroke="#E9E9E9"/>
<path d="M592.132 418.802L634.5 396.565L676.868 418.802V463.198L634.5 485.435L592.132 463.198V418.802Z" stroke="#E9E9E9"/>
<path d="M677.132 418.802L719.5 396.565L761.868 418.802V463.198L719.5 485.435L677.132 463.198V418.802Z" stroke="#E9E9E9"/>
<path d="M762.132 418.802L804.5 396.565L846.868 418.802V463.198L804.5 485.435L762.132 463.198V418.802Z" stroke="#E9E9E9"/>
<path d="M847.132 418.802L889.5 396.565L931.868 418.802V463.198L889.5 485.435L847.132 463.198V418.802Z" stroke="#E9E9E9"/>
<path d="M932.132 418.802L974.5 396.565L1016.87 418.802V463.198L974.5 485.435L932.132 463.198V418.802Z" stroke="#E9E9E9"/>
<path d="M1017.13 418.802L1059.5 396.565L1101.87 418.802V463.198L1059.5 485.435L1017.13 463.198V418.802Z" stroke="#E9E9E9"/>
<path d="M1102.13 418.802L1144.5 396.565L1186.87 418.802V463.198L1144.5 485.435L1102.13 463.198V418.802Z" stroke="#E9E9E9"/>
<path d="M1187.13 418.802L1229.5 396.565L1271.87 418.802V463.198L1229.5 485.435L1187.13 463.198V418.802Z" stroke="#E9E9E9"/>
<path d="M1272.13 418.802L1314.5 396.565L1356.87 418.802V463.198L1314.5 485.435L1272.13 463.198V418.802Z" stroke="#E9E9E9"/>
<path d="M1357.13 418.802L1399.5 396.565L1441.87 418.802V463.198L1399.5 485.435L1357.13 463.198V418.802Z" stroke="#E9E9E9"/>
<path d="M-45.3683 484.802L-3 462.565L39.3683 484.802V529.198L-3 551.435L-45.3683 529.198V484.802Z" stroke="#E9E9E9"/>
<path d="M39.6317 484.802L82 462.565L124.368 484.802V529.198L82 551.435L39.6317 529.198V484.802Z" stroke="#E9E9E9"/>
<path d="M124.632 484.802L167 462.565L209.368 484.802V529.198L167 551.435L124.632 529.198V484.802Z" stroke="#E9E9E9"/>
<path d="M209.632 484.802L252 462.565L294.368 484.802V529.198L252 551.435L209.632 529.198V484.802Z" stroke="#E9E9E9"/>
<path d="M294.632 484.802L337 462.565L379.368 484.802V529.198L337 551.435L294.632 529.198V484.802Z" stroke="#E9E9E9"/>
<path d="M379.632 484.802L422 462.565L464.368 484.802V529.198L422 551.435L379.632 529.198V484.802Z" stroke="#E9E9E9"/>
<path d="M464.632 484.802L507 462.565L549.368 484.802V529.198L507 551.435L464.632 529.198V484.802Z" stroke="#E9E9E9"/>
<path d="M549.632 484.802L592 462.565L634.368 484.802V529.198L592 551.435L549.632 529.198V484.802Z" stroke="#E9E9E9"/>
<path d="M634.632 484.802L677 462.565L719.368 484.802V529.198L677 551.435L634.632 529.198V484.802Z" stroke="#E9E9E9"/>
<path d="M719.632 484.802L762 462.565L804.368 484.802V529.198L762 551.435L719.632 529.198V484.802Z" stroke="#E9E9E9"/>
<path d="M804.632 484.802L847 462.565L889.368 484.802V529.198L847 551.435L804.632 529.198V484.802Z" stroke="#E9E9E9"/>
<path d="M889.632 484.802L932 462.565L974.368 484.802V529.198L932 551.435L889.632 529.198V484.802Z" stroke="#E9E9E9"/>
<path d="M974.632 484.802L1017 462.565L1059.37 484.802V529.198L1017 551.435L974.632 529.198V484.802Z" stroke="#E9E9E9"/>
<path d="M1059.63 484.802L1102 462.565L1144.37 484.802V529.198L1102 551.435L1059.63 529.198V484.802Z" stroke="#E9E9E9"/>
<path d="M1144.63 484.802L1187 462.565L1229.37 484.802V529.198L1187 551.435L1144.63 529.198V484.802Z" stroke="#E9E9E9"/>
<path d="M1229.63 484.802L1272 462.565L1314.37 484.802V529.198L1272 551.435L1229.63 529.198V484.802Z" stroke="#E9E9E9"/>
<path d="M1314.63 484.802L1357 462.565L1399.37 484.802V529.198L1357 551.435L1314.63 529.198V484.802Z" stroke="#E9E9E9"/>
<path d="M1399.63 484.802L1442 462.565L1484.37 484.802V529.198L1442 551.435L1399.63 529.198V484.802Z" stroke="#E9E9E9"/>
<path d="M-2.86826 550.802L39.5 528.565L81.8683 550.802V595.198L39.5 617.435L-2.86826 595.198V550.802Z" stroke="#E9E9E9"/>
<path d="M82.1317 550.802L124.5 528.565L166.868 550.802V595.198L124.5 617.435L82.1317 595.198V550.802Z" stroke="#E9E9E9"/>
<path d="M167.132 550.802L209.5 528.565L251.868 550.802V595.198L209.5 617.435L167.132 595.198V550.802Z" stroke="#E9E9E9"/>
<path d="M252.132 550.802L294.5 528.565L336.868 550.802V595.198L294.5 617.435L252.132 595.198V550.802Z" stroke="#E9E9E9"/>
<path d="M337.132 550.802L379.5 528.565L421.868 550.802V595.198L379.5 617.435L337.132 595.198V550.802Z" stroke="#E9E9E9"/>
<path d="M422.132 550.802L464.5 528.565L506.868 550.802V595.198L464.5 617.435L422.132 595.198V550.802Z" stroke="#E9E9E9"/>
<path d="M507.132 550.802L549.5 528.565L591.868 550.802V595.198L549.5 617.435L507.132 595.198V550.802Z" stroke="#E9E9E9"/>
<path d="M592.132 550.802L634.5 528.565L676.868 550.802V595.198L634.5 617.435L592.132 595.198V550.802Z" stroke="#E9E9E9"/>
<path d="M677.132 550.802L719.5 528.565L761.868 550.802V595.198L719.5 617.435L677.132 595.198V550.802Z" stroke="#E9E9E9"/>
<path d="M762.132 550.802L804.5 528.565L846.868 550.802V595.198L804.5 617.435L762.132 595.198V550.802Z" stroke="#E9E9E9"/>
<path d="M847.132 550.802L889.5 528.565L931.868 550.802V595.198L889.5 617.435L847.132 595.198V550.802Z" stroke="#E9E9E9"/>
<path d="M932.132 550.802L974.5 528.565L1016.87 550.802V595.198L974.5 617.435L932.132 595.198V550.802Z" stroke="#E9E9E9"/>
<path d="M1017.13 550.802L1059.5 528.565L1101.87 550.802V595.198L1059.5 617.435L1017.13 595.198V550.802Z" stroke="#E9E9E9"/>
<path d="M1102.13 550.802L1144.5 528.565L1186.87 550.802V595.198L1144.5 617.435L1102.13 595.198V550.802Z" stroke="#E9E9E9"/>
<path d="M1187.13 550.802L1229.5 528.565L1271.87 550.802V595.198L1229.5 617.435L1187.13 595.198V550.802Z" stroke="#E9E9E9"/>
<path d="M1272.13 550.802L1314.5 528.565L1356.87 550.802V595.198L1314.5 617.435L1272.13 595.198V550.802Z" stroke="#E9E9E9"/>
<path d="M1357.13 550.802L1399.5 528.565L1441.87 550.802V595.198L1399.5 617.435L1357.13 595.198V550.802Z" stroke="#E9E9E9"/>
<path d="M-45.3683 616.802L-3 594.565L39.3683 616.802V661.198L-3 683.435L-45.3683 661.198V616.802Z" stroke="#E9E9E9"/>
<path d="M39.6317 616.802L82 594.565L124.368 616.802V661.198L82 683.435L39.6317 661.198V616.802Z" stroke="#E9E9E9"/>
<path d="M124.632 616.802L167 594.565L209.368 616.802V661.198L167 683.435L124.632 661.198V616.802Z" stroke="#E9E9E9"/>
<path d="M209.632 616.802L252 594.565L294.368 616.802V661.198L252 683.435L209.632 661.198V616.802Z" stroke="#E9E9E9"/>
<path d="M294.632 616.802L337 594.565L379.368 616.802V661.198L337 683.435L294.632 661.198V616.802Z" stroke="#E9E9E9"/>
<path d="M379.632 616.802L422 594.565L464.368 616.802V661.198L422 683.435L379.632 661.198V616.802Z" stroke="#E9E9E9"/>
<path d="M464.632 616.802L507 594.565L549.368 616.802V661.198L507 683.435L464.632 661.198V616.802Z" stroke="#E9E9E9"/>
<path d="M549.632 616.802L592 594.565L634.368 616.802V661.198L592 683.435L549.632 661.198V616.802Z" stroke="#E9E9E9"/>
<path d="M634.632 616.802L677 594.565L719.368 616.802V661.198L677 683.435L634.632 661.198V616.802Z" stroke="#E9E9E9"/>
<path d="M719.632 616.802L762 594.565L804.368 616.802V661.198L762 683.435L719.632 661.198V616.802Z" stroke="#E9E9E9"/>
<path d="M804.632 616.802L847 594.565L889.368 616.802V661.198L847 683.435L804.632 661.198V616.802Z" stroke="#E9E9E9"/>
<path d="M889.632 616.802L932 594.565L974.368 616.802V661.198L932 683.435L889.632 661.198V616.802Z" stroke="#E9E9E9"/>
<path d="M974.632 616.802L1017 594.565L1059.37 616.802V661.198L1017 683.435L974.632 661.198V616.802Z" stroke="#E9E9E9"/>
<path d="M1059.63 616.802L1102 594.565L1144.37 616.802V661.198L1102 683.435L1059.63 661.198V616.802Z" stroke="#E9E9E9"/>
<path d="M1144.63 616.802L1187 594.565L1229.37 616.802V661.198L1187 683.435L1144.63 661.198V616.802Z" stroke="#E9E9E9"/>
<path d="M1229.63 616.802L1272 594.565L1314.37 616.802V661.198L1272 683.435L1229.63 661.198V616.802Z" stroke="#E9E9E9"/>
<path d="M1314.63 616.802L1357 594.565L1399.37 616.802V661.198L1357 683.435L1314.63 661.198V616.802Z" stroke="#E9E9E9"/>
<path d="M1399.63 616.802L1442 594.565L1484.37 616.802V661.198L1442 683.435L1399.63 661.198V616.802Z" stroke="#E9E9E9"/>
<g filter="url(#filter0_f_10_6)">
<path d="M17 539L323.434 836.379C332.48 845.158 346.05 847.345 357.397 841.853L867.281 595.045C879.027 589.359 893.103 591.92 902.094 601.378L1266.56 984.77C1277.69 996.473 1296.08 997.271 1308.18 986.574L1461.5 851" stroke="#FFCBB8" stroke-width="74"/>
</g>
<g filter="url(#filter1_f_10_6)">
<path d="M-23 746L283.434 1043.38C292.48 1052.16 306.05 1054.35 317.397 1048.85L827.281 802.045C839.027 796.359 853.103 798.92 862.094 808.378L1226.56 1191.77C1237.69 1203.47 1256.08 1204.27 1268.18 1193.57L1421.5 1058" stroke="#79A39D" stroke-width="74"/>
</g>
<defs>
<filter id="filter0_f_10_6" x="-200.768" y="320.448" width="1878.78" height="902.653" filterUnits="userSpaceOnUse" color-interpolation-filters="sRGB">
<feFlood flood-opacity="0" result="BackgroundImageFix"/>
<feBlend mode="normal" in="SourceGraphic" in2="BackgroundImageFix" result="shape"/>
<feGaussianBlur stdDeviation="96" result="effect1_foregroundBlur_10_6"/>
</filter>
<filter id="filter1_f_10_6" x="-240.768" y="527.448" width="1878.78" height="902.653" filterUnits="userSpaceOnUse" color-interpolation-filters="sRGB">
<feFlood flood-opacity="0" result="BackgroundImageFix"/>
<feBlend mode="normal" in="SourceGraphic" in2="BackgroundImageFix" result="shape"/>
<feGaussianBlur stdDeviation="96" result="effect1_foregroundBlur_10_6"/>
</filter>
</defs>
</svg>
