<svg width="74" height="38" viewBox="0 0 74 38" fill="none" xmlns="http://www.w3.org/2000/svg">
<path d="M9.19393 7.08997H9.84242C12.0938 7.13891 14.3084 8.04435 15.899 9.64721C15.3117 10.2468 14.7122 10.8218 14.1371 11.4214C13.2439 10.6138 12.1672 9.98981 10.9926 9.76957C9.25511 9.4025 7.38307 9.73286 5.92703 10.7239C4.3364 11.764 3.25967 13.5259 3.02719 15.4102C2.77024 17.27 3.29637 19.2277 4.5077 20.6715C5.67008 22.0786 7.44424 22.9596 9.27958 23.0208C10.9926 23.1186 12.779 22.5925 14.027 21.3934C15.0058 20.5492 15.4586 19.2644 15.6054 18.0164C13.5743 18.0164 11.5432 18.0286 9.51206 18.0164V15.4958H18.0647C18.5052 18.1999 17.869 21.2466 15.8134 23.1798C14.443 24.5502 12.5465 25.3578 10.6133 25.5168C8.74122 25.7004 6.80799 25.3455 5.14395 24.4401C3.14955 23.3756 1.55892 21.577 0.77584 19.4602C0.0417041 17.5147 0.0294685 15.3123 0.714662 13.3546C1.33868 11.5682 2.53777 9.98981 4.07945 8.8886C5.55996 7.79963 7.35859 7.20009 9.19393 7.08997Z" fill="#0F9918"/>
<path d="M58.2587 7.72607H60.8771V25.1985C60.0084 25.1985 59.1274 25.2107 58.2587 25.1863C58.2709 19.3744 58.2587 13.5502 58.2587 7.72607V7.72607Z" fill="#0F9918"/>
<path d="M23.8889 13.7829C25.504 13.477 27.2537 13.8196 28.5873 14.7862C29.7987 15.6427 30.6429 16.9886 30.8999 18.4569C31.2302 20.1576 30.8142 22.0174 29.713 23.3633C28.5262 24.8683 26.5807 25.6759 24.6842 25.5535C22.9467 25.4556 21.2582 24.5869 20.2304 23.1676C19.068 21.6014 18.7866 19.4479 19.4229 17.6126C20.0591 15.6427 21.8578 14.1377 23.8889 13.7829V13.7829ZM24.2559 16.1076C23.5952 16.2789 22.9834 16.6582 22.5429 17.1966C21.3561 18.6159 21.4295 20.9285 22.7387 22.2499C23.4851 23.0085 24.6108 23.3633 25.6508 23.1553C26.6174 22.984 27.4617 22.3355 27.9266 21.4791C28.7342 20.023 28.5017 18.0164 27.2659 16.8785C26.4706 16.1443 25.3082 15.8384 24.2559 16.1076Z" fill="#0F9918"/>
<path d="M36.8586 13.7829C38.7062 13.4281 40.7251 13.942 42.1077 15.2389C44.359 17.2578 44.6037 21.0386 42.6828 23.3634C41.5204 24.8316 39.6361 25.6392 37.7763 25.5535C36.0021 25.5046 34.2524 24.6236 33.2002 23.1676C32.0133 21.5647 31.7564 19.3623 32.4293 17.4903C33.1023 15.5815 34.8642 14.1255 36.8586 13.7829V13.7829ZM37.2257 16.1077C36.565 16.279 35.9532 16.6583 35.5127 17.1844C34.3381 18.5793 34.387 20.8551 35.6473 22.1887C36.3937 22.9841 37.556 23.3756 38.6328 23.1554C39.5871 22.9718 40.4436 22.3356 40.9086 21.4791C41.7039 20.0108 41.4714 18.0042 40.2234 16.8663C39.4281 16.1321 38.2657 15.8385 37.2257 16.1077Z" fill="#0F9918"/>
<path d="M47.8584 14.4923C49.2655 13.6114 51.1376 13.3667 52.6548 14.1253C53.132 14.3333 53.5235 14.6881 53.9028 15.0429C53.915 14.7126 53.9028 14.37 53.915 14.0274C54.7348 14.0396 55.5546 14.0274 56.3866 14.0396V24.8314C56.3744 26.4587 55.9584 28.184 54.7838 29.3708C53.499 30.68 51.5291 31.0838 49.7549 30.8146C47.8584 30.5332 46.2066 29.1506 45.4725 27.4009C46.2066 27.046 46.9775 26.7646 47.7361 26.4343C48.1643 27.4376 49.033 28.2941 50.122 28.4898C51.211 28.6856 52.4712 28.4164 53.1809 27.511C53.9395 26.5811 53.9395 25.3086 53.9028 24.1707C53.34 24.7213 52.6915 25.2107 51.9084 25.3942C50.2077 25.8714 48.3356 25.2841 47.0264 24.134C45.705 22.9838 44.9219 21.2097 44.9953 19.4477C45.032 17.4533 46.1577 15.5324 47.8584 14.4923V14.4923ZM50.3912 16.0585C49.6448 16.1808 48.9474 16.5969 48.4702 17.1719C47.3201 18.5423 47.3201 20.7325 48.4824 22.0784C49.1432 22.8737 50.2077 23.3142 51.2354 23.2041C52.2021 23.1062 53.0953 22.4944 53.5725 21.6502C54.38 20.2186 54.2454 18.2731 53.1564 17.0251C52.4835 16.2543 51.4067 15.875 50.3912 16.0585V16.0585Z" fill="#0F9918"/>
<path d="M64.0217 15.1164C65.49 13.746 67.7535 13.2811 69.6378 14.003C71.4242 14.6759 72.5621 16.3767 73.1372 18.1264C70.4821 19.2276 67.8392 20.3166 65.1841 21.4178C65.5511 22.1152 66.114 22.7514 66.8726 23.0084C67.9371 23.3877 69.2096 23.2531 70.1028 22.5434C70.4576 22.2743 70.739 21.9194 71.0082 21.5768C71.6812 22.0295 72.3541 22.47 73.0271 22.9227C72.0727 24.3543 70.4699 25.3576 68.7446 25.5167C66.8359 25.7492 64.8048 25.015 63.569 23.5223C61.5378 21.173 61.7336 17.2332 64.0217 15.1164V15.1164ZM65.3309 17.38C64.9149 17.9796 64.7436 18.7137 64.7558 19.4356C66.53 18.7015 68.3041 17.9673 70.0783 17.2209C69.7847 16.5358 69.075 16.1197 68.3531 16.0096C67.1907 15.8016 65.9794 16.4256 65.3309 17.38V17.38Z" fill="#0F9918"/>
</svg>
