<svg width="47" height="47" viewBox="0 0 47 47" fill="none" xmlns="http://www.w3.org/2000/svg">
<g id="Exam Paper">
<path id="Vector" d="M30.8438 1.46875H16.1562C15.3451 1.46875 14.6875 2.12633 14.6875 2.9375V8.8125C14.6875 9.62367 15.3451 10.2812 16.1562 10.2812H30.8438C31.6549 10.2812 32.3125 9.62367 32.3125 8.8125V2.9375C32.3125 2.12633 31.6549 1.46875 30.8438 1.46875Z" fill="black"/>
<path id="Vector_2" d="M17.625 19.0938H14.6875V22.0312H17.625V19.0938Z" fill="black"/>
<path id="Vector_3" d="M17.625 33.7812H14.6875V36.7188H17.625V33.7812Z" fill="black"/>
<path id="Vector_4" d="M35.25 4.40625V8.8125C35.25 9.98111 34.7858 11.1019 33.9594 11.9282C33.1331 12.7545 32.0124 13.2188 30.8438 13.2188H16.1562C14.9876 13.2188 13.8669 12.7545 13.0406 11.9282C12.2142 11.1019 11.75 9.98111 11.75 8.8125V4.40625C10.5814 4.40625 9.46064 4.87048 8.63431 5.69681C7.80798 6.52314 7.34375 7.64389 7.34375 8.8125V41.125C7.34375 42.2936 7.80798 43.4144 8.63431 44.2407C9.46064 45.067 10.5814 45.5312 11.75 45.5312H35.25C36.4186 45.5312 37.5394 45.067 38.3657 44.2407C39.192 43.4144 39.6562 42.2936 39.6562 41.125V8.8125C39.6562 7.64389 39.192 6.52314 38.3657 5.69681C37.5394 4.87048 36.4186 4.40625 35.25 4.40625ZM20.5625 38.1875C20.5625 38.577 20.4078 38.9506 20.1323 39.2261C19.8569 39.5015 19.4833 39.6562 19.0938 39.6562H13.2188C12.8292 39.6562 12.4556 39.5015 12.1802 39.2261C11.9047 38.9506 11.75 38.577 11.75 38.1875V32.3125C11.75 31.923 11.9047 31.5494 12.1802 31.2739C12.4556 30.9985 12.8292 30.8438 13.2188 30.8438H19.0938C19.4833 30.8438 19.8569 30.9985 20.1323 31.2739C20.4078 31.5494 20.5625 31.923 20.5625 32.3125V38.1875ZM20.5625 23.5C20.5625 23.8895 20.4078 24.2631 20.1323 24.5386C19.8569 24.814 19.4833 24.9688 19.0938 24.9688H13.2188C12.8292 24.9688 12.4556 24.814 12.1802 24.5386C11.9047 24.2631 11.75 23.8895 11.75 23.5V17.625C11.75 17.2355 11.9047 16.8619 12.1802 16.5864C12.4556 16.311 12.8292 16.1562 13.2188 16.1562H19.0938C19.4833 16.1562 19.8569 16.311 20.1323 16.5864C20.4078 16.8619 20.5625 17.2355 20.5625 17.625V23.5ZM33.7812 39.6562H24.9688C24.5792 39.6562 24.2056 39.5015 23.9302 39.2261C23.6547 38.9506 23.5 38.577 23.5 38.1875C23.5 37.798 23.6547 37.4244 23.9302 37.1489C24.2056 36.8735 24.5792 36.7188 24.9688 36.7188H33.7812C34.1708 36.7188 34.5444 36.8735 34.8198 37.1489C35.0953 37.4244 35.25 37.798 35.25 38.1875C35.25 38.577 35.0953 38.9506 34.8198 39.2261C34.5444 39.5015 34.1708 39.6562 33.7812 39.6562ZM33.7812 35.25H27.9062C27.5167 35.25 27.1431 35.0953 26.8677 34.8198C26.5922 34.5444 26.4375 34.1708 26.4375 33.7812C26.4375 33.3917 26.5922 33.0181 26.8677 32.7427C27.1431 32.4672 27.5167 32.3125 27.9062 32.3125H33.7812C34.1708 32.3125 34.5444 32.4672 34.8198 32.7427C35.0953 33.0181 35.25 33.3917 35.25 33.7812C35.25 34.1708 35.0953 34.5444 34.8198 34.8198C34.5444 35.0953 34.1708 35.25 33.7812 35.25ZM33.7812 24.9688H24.9688C24.5792 24.9688 24.2056 24.814 23.9302 24.5386C23.6547 24.2631 23.5 23.8895 23.5 23.5C23.5 23.1105 23.6547 22.7369 23.9302 22.4614C24.2056 22.186 24.5792 22.0312 24.9688 22.0312H33.7812C34.1708 22.0312 34.5444 22.186 34.8198 22.4614C35.0953 22.7369 35.25 23.1105 35.25 23.5C35.25 23.8895 35.0953 24.2631 34.8198 24.5386C34.5444 24.814 34.1708 24.9688 33.7812 24.9688ZM33.7812 20.5625H27.9062C27.5167 20.5625 27.1431 20.4078 26.8677 20.1323C26.5922 19.8569 26.4375 19.4833 26.4375 19.0938C26.4375 18.7042 26.5922 18.3306 26.8677 18.0552C27.1431 17.7797 27.5167 17.625 27.9062 17.625H33.7812C34.1708 17.625 34.5444 17.7797 34.8198 18.0552C35.0953 18.3306 35.25 18.7042 35.25 19.0938C35.25 19.4833 35.0953 19.8569 34.8198 20.1323C34.5444 20.4078 34.1708 20.5625 33.7812 20.5625Z" fill="black"/>
</g>
</svg>
