<svg width="34" height="34" viewBox="0 0 34 34" fill="none" xmlns="http://www.w3.org/2000/svg">
<g id="Group">
<path id="Vector" d="M17.218 33.6532C16.3167 33.6532 15.4116 33.5811 14.5299 33.4378C10.6377 32.8094 7.07058 30.8033 4.48702 27.7894C1.87543 24.7428 0.437012 20.8496 0.437012 16.8261C0.437012 7.54769 7.9654 0 17.218 0C26.4707 0 34 7.54863 34 16.8261C34 20.9114 32.5223 24.8505 29.8379 27.9178C27.1796 30.9569 23.5275 32.9358 19.5541 33.4912C18.7854 33.5989 17.9989 33.6532 17.218 33.6532ZM17.218 1.12387C8.5828 1.12387 1.55786 8.16769 1.55786 16.8261C1.55786 24.578 7.08832 31.0983 14.7083 32.328C16.2448 32.5762 17.8532 32.594 19.399 32.3776C27.0834 31.3043 32.8782 24.6183 32.8782 16.8261C32.8782 8.16769 25.8533 1.12387 17.2171 1.12387H17.218Z" fill="#98A2B3"/>
<path id="Vector_2" d="M19.4766 13.6212V17.1641H23.8479L23.1558 21.9377H19.4766V32.9348C18.7387 33.0378 17.984 33.0912 17.218 33.0912C16.3335 33.0912 15.4658 33.02 14.6195 32.8833V21.9377H10.5882V17.1641H14.6195V12.8298C14.6195 10.14 16.794 7.95874 19.4775 7.95874V7.96155C19.485 7.96155 19.4924 7.95874 19.4999 7.95874H23.8488V12.0861H21.0075C20.1622 12.0861 19.4775 12.7726 19.4775 13.6202L19.4766 13.6212Z" fill="#98A2B3"/>
</g>
</svg>
