<svg width="66" height="66" viewBox="0 0 66 66" fill="none" xmlns="http://www.w3.org/2000/svg">
<path id="Vector" fill-rule="evenodd" clip-rule="evenodd" d="M46.2424 54.1803L33 59.0544L11.6519 51.1956V42.1874L33 50.1055L46.2424 45.1945V54.1803ZM34.1001 26.2389C34.1001 26.9516 33.6072 27.5312 33 27.5312C32.3933 27.5312 31.8999 26.9516 31.8999 26.2389V25.6483C31.5823 25.6049 31.2696 25.5354 30.9664 25.4419C29.7638 25.0726 28.6859 24.3192 27.9502 23.2475C27.5705 22.6928 27.6457 21.8815 28.1176 21.4357C28.5894 20.9888 29.2811 21.0769 29.6606 21.6316C30.0923 22.263 30.7573 22.7148 31.5166 22.948C32.3124 23.1921 33.1988 23.1921 34.0313 22.9033C34.5328 22.7294 34.9412 22.4941 35.261 22.2208C35.683 21.8579 35.957 21.4186 36.0922 20.9546C36.2229 20.5102 36.2268 20.0353 36.1139 19.5875C36.0427 19.3046 35.928 19.0311 35.7722 18.7813C35.0246 17.5783 33.8415 17.3996 32.6909 17.2257C30.9027 16.9551 29.1681 16.6934 28.0463 14.0613C27.9322 13.7941 27.8411 13.5247 27.7739 13.2563C27.5066 12.1956 27.5612 11.0633 27.966 10.0262C28.3568 9.02436 29.0696 8.12895 30.1282 7.50543C30.4539 7.31357 30.8063 7.14916 31.1842 7.01794C31.4204 6.9362 31.6592 6.87044 31.8999 6.82158V6.15092C31.8999 5.43698 32.3933 4.85876 33 4.85876C33.6072 4.85876 34.1001 5.43713 34.1001 6.15092V6.8084C34.3002 6.84671 34.4979 6.89665 34.6917 6.9559C35.8392 7.3083 36.8684 8.02875 37.5711 9.05181C37.9501 9.60646 37.8754 10.4178 37.4035 10.8636C36.9315 11.3093 36.24 11.2214 35.8605 10.6663C35.4613 10.0851 34.8457 9.66571 34.1418 9.45027C33.4019 9.22289 32.5769 9.22289 31.8026 9.4923C31.5394 9.58257 31.3082 9.68913 31.1078 9.80747C30.5279 10.1496 30.1519 10.6049 29.9593 11.0961C29.7819 11.5514 29.7597 12.0548 29.8791 12.5309C29.9135 12.666 29.9557 12.7934 30.0057 12.9109C30.6041 14.3135 31.7671 14.4897 32.9659 14.6713C34.5783 14.9144 36.2367 15.1658 37.5426 17.2668C37.8525 17.7653 38.0791 18.3042 38.2188 18.8602C38.4615 19.8214 38.4522 20.8364 38.172 21.7923C37.898 22.7296 37.3635 23.6025 36.5501 24.3011C36.0288 24.7479 35.3959 25.1175 34.65 25.3778C34.4677 25.4408 34.2842 25.4933 34.1001 25.5379V26.2389ZM33 0C40.6121 0 46.7817 7.24998 46.7817 16.1949C46.7817 22.3209 43.887 27.6508 39.6172 30.4027H26.383C22.1129 27.651 19.2183 22.321 19.2183 16.1949C19.2183 7.24998 25.3884 0 33 0ZM33 47.3956L0 35.1559L20.3165 27.6192C20.976 28.6317 21.7225 29.5639 22.5463 30.4025H20.6048C19.9973 30.4025 19.5047 30.9809 19.5047 31.6953C19.5047 32.4092 19.9973 32.9875 20.6048 32.9875H45.3956C46.0033 32.9875 46.4957 32.4091 46.4957 31.6953C46.4957 30.981 46.0033 30.4025 45.3956 30.4025H43.4541C44.2775 29.5639 45.0242 28.6317 45.6834 27.6203L66 35.1559L50.5483 40.8875C50.5819 41.0111 50.5999 41.1421 50.5999 41.2752V43.5787L54.3482 42.1872V51.1955L50.5999 52.576V61.9678L51.8872 63.924C52.2569 64.487 52.1685 65.2971 51.6897 65.7308C51.2102 66.1662 50.5213 66.0621 50.1509 65.4989L49.4999 64.5093L48.8486 65.4991C48.4781 66.0622 47.7893 66.1663 47.31 65.7309C46.831 65.2971 46.7428 64.487 47.1125 63.9241L48.4001 61.968V42.2234C42.6578 40.0935 36.9156 37.9616 31.1734 35.8333C30.5948 35.6177 29.9771 35.9963 29.7944 36.6763C29.6113 37.3559 29.9329 38.0815 30.512 38.2971L44.0213 43.308L33 47.3956Z" fill="url(#paint0_linear_104_33)"/>
<defs>
<linearGradient id="paint0_linear_104_33" x1="33" y1="0" x2="33" y2="66" gradientUnits="userSpaceOnUse">
<stop stop-color="#FD4F85"/>
<stop offset="1" stop-color="#FE8F8B"/>
</linearGradient>
</defs>
</svg>
