<svg width="99" height="78" viewBox="0 0 99 78" fill="none" xmlns="http://www.w3.org/2000/svg">
<g id="Layer_x0020_1">
<g id="_129576152">
<path id="_129924416" d="M27.294 68.408H28.4251V61.5055H27.294V68.408Z" fill="#1E3476"/>
<path id="_129924344" d="M30.5294 68.4079V61.2338L34.9319 65.4517C35.0556 65.5731 35.1777 65.6961 35.3014 65.8339C35.4241 65.9723 35.5546 66.1199 35.688 66.2902V61.5054H36.7333V68.677L32.2359 64.3831C32.1156 64.2667 31.9978 64.1412 31.8846 64.0121C31.7763 63.8847 31.667 63.7486 31.5709 63.6074V68.4079L30.5294 68.4079Z" fill="#1E3476"/>
<path id="_129924272" d="M38.4124 67.0263L39.3116 66.6116C39.3959 66.9228 39.554 67.1545 39.7817 67.3169C40.0068 67.4794 40.2991 67.5606 40.6521 67.5606C40.987 67.5606 41.2569 67.4673 41.451 67.281C41.6504 67.0946 41.7492 66.8479 41.7492 66.5355C41.7492 66.1305 41.4098 65.7688 40.7337 65.4523C40.6426 65.4031 40.5686 65.3669 40.5171 65.3499C39.7543 64.978 39.2407 64.6411 38.9861 64.3411C38.7334 64.0418 38.6047 63.6743 38.6047 63.2417C38.6047 62.6786 38.7988 62.2202 39.1804 61.8741C39.5662 61.5259 40.0696 61.349 40.6905 61.349C41.2028 61.349 41.6323 61.4497 41.9787 61.645C42.3189 61.8439 42.5586 62.1252 42.69 62.4912L41.8094 62.9425C41.6703 62.7261 41.5164 62.569 41.3524 62.4656C41.1865 62.368 40.994 62.3194 40.7844 62.3194C40.4768 62.3194 40.2362 62.3954 40.0584 62.5544C39.8831 62.71 39.7913 62.9204 39.7913 63.1862C39.7913 63.5982 40.1821 63.9855 40.9666 64.3438L41.11 64.4128C41.7955 64.7231 42.2663 65.0304 42.5191 65.3318C42.7768 65.6321 42.9055 66.0073 42.9055 66.4561C42.9055 67.1092 42.6976 67.6307 42.2853 68.0136C41.8703 68.4016 41.3109 68.5924 40.6066 68.5924C40.0162 68.5924 39.5317 68.4573 39.1546 68.1846C38.7774 67.9179 38.5293 67.5305 38.4124 67.0263Z" fill="#1E3476"/>
<path id="_129924200" d="M45.7503 64.39H46.0381C46.6628 64.39 47.0802 64.3227 47.2883 64.1891C47.4968 64.0542 47.6054 63.8157 47.6054 63.4746C47.6054 63.1025 47.4928 62.8461 47.2676 62.695C47.0451 62.5444 46.6337 62.4658 46.0381 62.4658H45.7503V64.39ZM45.6799 65.3116V68.4081H44.6205V61.5056H46.3286C46.8311 61.5056 47.2048 61.5346 47.4456 61.587C47.6817 61.6426 47.8905 61.7306 48.0658 61.8579C48.2857 62.0196 48.4549 62.2341 48.576 62.5102C48.6998 62.7814 48.767 63.0805 48.767 63.4078C48.767 63.7336 48.6998 64.0361 48.576 64.3105C48.4549 64.5875 48.2857 64.8046 48.0658 64.9613C47.8905 65.0885 47.6817 65.1756 47.4456 65.2285C47.2048 65.2835 46.8311 65.3116 46.3286 65.3116L45.6799 65.3116Z" fill="#1E3476"/>
<path id="_129924128" d="M50.2928 68.408H51.4181V61.5055H50.2928V68.408Z" fill="#1E3476"/>
<path id="_129924056" d="M54.651 64.448H54.8555C55.4517 64.448 55.8478 64.3781 56.0445 64.2404C56.2388 64.1019 56.3401 63.8572 56.3401 63.5041C56.3401 63.1264 56.2317 62.8555 56.0231 62.7023C55.8117 62.5442 55.4241 62.4657 54.8555 62.4657H54.651V64.448ZM54.5779 65.3199V68.408H53.5245V61.5055H55.0961C55.5574 61.5055 55.9166 61.5363 56.1675 61.5953C56.4269 61.6543 56.6417 61.756 56.8211 61.8937C57.0386 62.0606 57.201 62.2759 57.3204 62.5399C57.4329 62.8041 57.4947 63.0896 57.4947 63.4076C57.4947 63.9606 57.3581 64.3924 57.0909 64.7044C56.8255 65.0192 56.4277 65.2063 55.9037 65.2662L58.2894 68.408H57.0144L54.7094 65.3199H54.5779Z" fill="#1E3476"/>
<path id="_129923984" d="M59.445 68.408V61.5055H63.3137V62.4571H60.5731V64.189H63.3137V65.1755H60.5731V67.4053H63.3137V68.408H59.445Z" fill="#1E3476"/>
<path id="_129923912" d="M66.2203 67.3958H67.1689C67.6929 67.3958 68.0849 67.3605 68.3416 67.2895C68.6053 67.2222 68.8323 67.1059 69.0237 66.94C69.2867 66.7168 69.4791 66.4423 69.6114 66.1091C69.7429 65.7757 69.8075 65.3926 69.8075 64.9542C69.8075 64.5112 69.7429 64.1258 69.6114 63.7933C69.4791 63.4625 69.2867 63.1879 69.0237 62.9607C68.8279 62.7981 68.5927 62.6808 68.3184 62.6111C68.0468 62.5432 67.6199 62.5093 67.0372 62.5093H66.2203V67.3958ZM65.0966 68.4079V61.5048H66.6148C67.6054 61.5048 68.2987 61.5561 68.7034 61.6543C69.1056 61.7515 69.4588 61.9201 69.7618 62.1499C70.1629 62.4571 70.4682 62.8486 70.6724 63.3249C70.8787 63.8018 70.9851 64.3472 70.9851 64.96C70.9851 65.5722 70.8787 66.1149 70.6724 66.5894C70.4682 67.0622 70.1629 67.4529 69.7618 67.7634C69.4588 67.9949 69.1158 68.1591 68.7249 68.2618C68.3416 68.359 67.7357 68.4079 66.9216 68.4079L65.0966 68.4079Z" fill="#1E3476"/>
<path id="_129923840" d="M27.812 76.5781H28.4255L28.4745 76.583H28.5278C28.8542 76.572 29.1557 76.5026 29.4272 76.3693C29.7039 76.2396 29.8405 75.9754 29.8405 75.5753C29.8405 75.2134 29.7143 74.9666 29.4676 74.8374C29.2236 74.7064 28.9537 74.6263 28.6601 74.6041L28.5003 74.5996L28.343 74.5962H27.812V76.5781ZM27.812 74.0698H28.0448C28.3963 74.0784 28.6936 74.0303 28.9502 73.9353C29.2039 73.8373 29.3344 73.5737 29.3344 73.1447C29.3344 72.7266 29.215 72.4643 28.9727 72.3693C28.7365 72.2719 28.4307 72.2224 28.051 72.2224H27.812V74.0698ZM27.1962 71.6547H28.1023C28.6084 71.6597 29.0399 71.7703 29.4051 71.982C29.7684 72.1968 29.9504 72.5867 29.9504 73.1491C29.9504 73.3707 29.9059 73.5737 29.8163 73.7561C29.7286 73.9371 29.5948 74.0909 29.4067 74.2185C29.7364 74.2945 29.9979 74.4656 30.1782 74.7321C30.3619 74.9946 30.454 75.2929 30.454 75.6229C30.454 76.1668 30.2623 76.5567 29.8748 76.7942C29.4918 77.0251 29.027 77.1432 28.4745 77.1432H27.1962L27.1962 71.6547Z" fill="#1E3476"/>
<path id="_129923768" d="M31.2202 71.6547H31.9291L33.3321 74.1005L34.7366 71.6547H35.4483L33.6423 74.7862V77.1432H33.0277V74.7862L31.2202 71.6547Z" fill="#1E3476"/>
<path id="_129923696" d="M39.6545 74.1758H40.0662C40.4064 74.1794 40.7045 74.1176 40.9509 73.9807C41.2 73.8431 41.3238 73.5806 41.3238 73.19C41.3238 72.7446 41.1779 72.4754 40.8822 72.3736C40.5859 72.2719 40.263 72.2224 39.9071 72.2224H39.6545V74.1758ZM39.6545 77.1432H39.0438V71.6547H39.9493L40.0507 71.6614H40.1539C40.36 71.6676 40.561 71.6863 40.7602 71.7274C40.9614 71.7608 41.1494 71.8353 41.3179 71.9529C41.5232 72.0933 41.6746 72.2788 41.7836 72.5002C41.8859 72.7266 41.9417 72.9611 41.9417 73.2011V73.2629C41.9288 73.4738 41.8789 73.679 41.7948 73.8791C41.7038 74.0784 41.5773 74.2448 41.4133 74.3801C41.2517 74.515 41.0713 74.6067 40.872 74.6579C40.6778 74.7041 40.4785 74.7321 40.28 74.7409H39.6545V77.1432Z" fill="#1E3476"/>
<path id="_129923624" d="M43.69 74.9256V75.1698L43.6968 75.3581C43.7012 75.4939 43.7176 75.6315 43.7554 75.7726C43.7889 75.9127 43.8472 76.0368 43.9307 76.1545C44.0251 76.2871 44.1401 76.3899 44.2964 76.4767C44.4477 76.5566 44.6033 76.6145 44.7658 76.6488L44.9058 76.6709L45.0431 76.6798L45.1488 76.6726L45.2461 76.6634C45.4153 76.6395 45.5741 76.5863 45.7297 76.5025C45.8867 76.4206 46.0165 76.3156 46.1232 76.1881C46.2331 76.0649 46.3027 75.9206 46.3378 75.7726C46.3741 75.6206 46.3911 75.4632 46.3955 75.3007V71.6545H47.0096V75.0918C47.0096 75.3939 46.9814 75.6641 46.9324 75.9127C46.8836 76.1545 46.7442 76.3899 46.5252 76.618C46.3378 76.8248 46.1102 76.9771 45.8507 77.0832C45.5904 77.1857 45.3198 77.2386 45.0431 77.2386H44.9807L44.9116 77.2318C44.6704 77.2154 44.4402 77.1645 44.2114 77.0737C43.9891 76.9771 43.7889 76.8515 43.6152 76.6832C43.3756 76.4555 43.2278 76.2153 43.1643 75.9537C43.1048 75.6939 43.0722 75.4069 43.0722 75.1006V71.6545H43.69L43.69 74.9256Z" fill="#1E3476"/>
<path id="_129923552" d="M49.0788 74.1973H49.2712C49.6141 74.1973 49.9518 74.1435 50.2361 74.0279C50.5274 73.9102 50.6675 73.6415 50.6675 73.2148C50.6675 72.7662 50.5292 72.4839 50.243 72.3771C49.9604 72.2764 49.6365 72.2226 49.2628 72.2226H49.0788V74.1973ZM49.0788 77.1433H48.4663V71.6548H49.2628C49.7841 71.6599 50.2525 71.761 50.6656 71.9541C51.0747 72.1481 51.2861 72.5567 51.2861 73.1756C51.2861 73.5997 51.1597 73.9467 50.9088 74.2212C50.6606 74.4939 50.3246 74.6505 49.8992 74.693L51.6599 77.1433H50.9048L49.2369 74.734H49.0788V77.1433Z" fill="#1E3476"/>
<path id="_129923480" d="M53.4138 74.1758H53.8203C54.1649 74.1794 54.4579 74.1176 54.7095 73.9807C54.9585 73.8431 55.08 73.5806 55.08 73.19C55.08 72.7446 54.9338 72.4754 54.6374 72.3736C54.3427 72.2719 54.0188 72.2224 53.6622 72.2224H53.4138V74.1758ZM53.4138 77.1432H52.7969V71.6547H53.7027L53.8073 71.6614H53.9104C54.1133 71.6676 54.3203 71.6863 54.517 71.7274C54.7179 71.7608 54.9046 71.8353 55.0711 71.9529C55.2766 72.0933 55.4347 72.2788 55.5405 72.5002C55.64 72.7266 55.6941 72.9611 55.6941 73.2011V73.2629C55.6855 73.4738 55.6365 73.679 55.5479 73.8791C55.4622 74.0784 55.3307 74.2448 55.1666 74.3801C55.0075 74.515 54.828 74.6067 54.6313 74.6579C54.432 74.7041 54.2335 74.7321 54.0351 74.7409H53.4138L53.4138 77.1432Z" fill="#1E3476"/>
<path id="_129923408" d="M57.8379 72.8052C57.3954 73.2524 57.1805 73.7839 57.1805 74.4062C57.1805 75.0235 57.3997 75.5562 57.843 76.0066C58.2828 76.4531 58.8164 76.6797 59.4402 76.6797C60.0639 76.6797 60.5975 76.4531 61.0382 76.0066C61.4791 75.5535 61.7023 75.0201 61.7023 74.4062C61.7023 73.7814 61.4842 73.2446 61.0461 72.8C60.6103 72.3511 60.075 72.1281 59.4402 72.1281C58.8096 72.135 58.2717 72.3589 57.8379 72.8052ZM59.4402 71.5586C60.2237 71.5664 60.9006 71.8452 61.4651 72.4018C62.0314 72.9575 62.3176 73.6302 62.3176 74.4129C62.3176 75.2064 62.0314 75.8734 61.4651 76.4196C60.9006 76.9657 60.2237 77.2385 59.4402 77.2385C58.654 77.2385 57.9786 76.9657 57.4151 76.4196C56.8483 75.8734 56.567 75.2064 56.567 74.4129C56.567 73.6302 56.8483 72.9575 57.4151 72.4018C57.9786 71.8452 58.654 71.5586 59.4402 71.5586Z" fill="#1E3476"/>
<path id="_129923336" d="M66.5091 72.4132L66.0184 72.7269C65.912 72.5434 65.7838 72.3979 65.6412 72.2902C65.4909 72.185 65.3036 72.138 65.0665 72.138C64.8233 72.138 64.612 72.2167 64.4273 72.3749C64.245 72.5313 64.1506 72.7364 64.1506 72.9878C64.1506 73.1768 64.2186 73.3314 64.3552 73.4511C64.4882 73.5708 64.6308 73.666 64.7916 73.7453L64.9058 73.7998L65.0139 73.8444L65.3818 73.9982C65.7433 74.16 66.057 74.3503 66.3139 74.5676C66.5767 74.7865 66.7039 75.1147 66.7039 75.5499C66.7039 76.033 66.5373 76.4304 66.2005 76.757C65.8595 77.0782 65.4504 77.2391 64.9712 77.2391C64.5286 77.2391 64.1506 77.111 63.8448 76.8543C63.5372 76.598 63.3413 76.2552 63.2554 75.8242L63.8542 75.6534C63.8937 75.9389 64.013 76.1791 64.2132 76.3798C64.4109 76.579 64.6625 76.6802 64.9565 76.6802C65.2546 76.6802 65.5159 76.579 65.7476 76.3782C65.9771 76.1739 66.0914 75.92 66.0914 75.6122C66.0914 75.296 65.9907 75.071 65.7943 74.926C65.5975 74.7788 65.3739 74.6507 65.1264 74.5385L65.1017 74.531L65.0741 74.5188L64.7383 74.3631C64.4205 74.2222 64.1333 74.052 63.8988 73.8547C63.6565 73.6536 63.5372 73.3616 63.5372 72.9664C63.5372 72.5408 63.6935 72.1979 64.002 71.9458C64.3131 71.6952 64.673 71.5696 65.0809 71.5696C65.3878 71.5696 65.6686 71.6421 65.9169 71.7892C66.1655 71.9387 66.3612 72.143 66.5091 72.4132Z" fill="#1E3476"/>
<path id="_129923264" d="M67.9686 71.6547H70.8304V72.2232H68.5822V73.8534H70.7654V74.4205H68.5822V76.5782H70.8304V77.1432H67.9686V71.6547Z" fill="#1E3476"/>
<path id="_129923192" fill-rule="evenodd" clip-rule="evenodd" d="M79.5372 28.6226H91.9853C92.5987 28.4156 93.1237 28.0274 93.5273 27.6283C93.7249 27.4316 93.9012 27.2368 94.0403 27.0617C94.3419 26.6895 94.5059 26.4025 94.5059 26.4025V26.2391H79.5372L79.5372 28.6226Z" fill="#1E3476"/>
<path id="_129923120" fill-rule="evenodd" clip-rule="evenodd" d="M48.3987 23.9123L59.4037 23.972C59.3694 22.9058 60.1624 22.2006 61.0611 21.7725C61.5644 21.5304 61.9906 21.4304 61.9906 21.4304H44.8532C43.6271 21.4304 42.4769 22.0176 41.6375 22.8895C40.4336 24.1361 39.9037 25.8747 40.1843 27.5819C40.3142 28.3496 40.5702 28.9891 40.981 29.7356C41.1381 30.0243 41.2832 30.2578 41.4053 30.4518C41.8254 31.1187 42.0221 31.2648 42.0221 31.2648H59.4174L59.4037 28.8173C54.5873 28.8095 49.7683 28.7961 44.9519 28.7831C44.9519 28.7831 44.9143 28.395 44.9587 25.8064C44.9896 23.9565 48.3987 23.9123 48.3987 23.9123Z" fill="#1E3476"/>
<path id="_129923048" fill-rule="evenodd" clip-rule="evenodd" d="M66.9819 23.9106C67.2631 23.8966 67.4571 23.9106 67.4571 23.9106H76.029C75.3545 22.8245 74.3914 22.0134 73.1498 21.6527C72.3208 21.4065 71.6928 21.4637 71.6928 21.4637C71.6928 21.4637 71.0864 21.4304 69.9074 21.4167C68.2588 21.3926 66.6178 21.4167 64.9699 21.4637C64.3591 21.481 63.8221 21.5628 63.3503 21.698C60.7077 22.4552 60.1088 24.9268 59.9791 27.341C59.9061 28.6516 59.9791 29.9493 59.9715 31.2547H76.5188L76.5451 28.7985L65.1323 28.7806V27.6693H76.4808V25.1926H65.066C65.0912 24.1634 66.293 23.947 66.9819 23.9106Z" fill="#1E3476"/>
<path id="_129922976" fill-rule="evenodd" clip-rule="evenodd" d="M11.6418 33.0882C11.8623 33.2949 12.1159 33.5268 12.3993 33.7592C13.4846 34.6475 15.001 35.5991 16.5749 35.6322C18.0279 35.6629 33.5387 35.6668 49.0301 35.659C65.2733 35.652 81.4914 35.6322 81.4914 35.6322C81.4914 35.6322 83.97 35.0612 85.8293 33.7191C86.3698 33.3266 86.8776 32.8522 87.247 32.2854L10.8186 32.2256C10.8186 32.2256 11.1251 32.5924 11.6418 33.0882ZM23.2608 33.0044L23.2273 33.3574C23.1567 33.2678 23.0606 33.1992 22.9309 33.1549C22.7985 33.1113 22.6447 33.0882 22.4593 33.0882C22.0993 33.0882 21.8182 33.1481 21.6147 33.2703C21.4117 33.3909 21.3063 33.5594 21.3063 33.7704C21.3063 33.9909 21.4205 34.1644 21.6438 34.2961C21.8672 34.4286 22.168 34.4944 22.5443 34.4944C22.7212 34.4944 22.8861 34.4783 23.0407 34.4407C23.1921 34.4039 23.3286 34.3559 23.4412 34.292C23.3837 34.4107 23.2495 34.5057 23.0476 34.5767C22.8389 34.6475 22.5932 34.6825 22.3114 34.6825C21.8699 34.6825 21.51 34.6081 21.2305 34.4525C20.9497 34.2943 20.8087 34.0916 20.8087 33.8466C20.8087 33.5747 20.959 33.3635 21.2608 33.2071C21.5631 33.0524 21.9796 32.9737 22.5133 32.9737C22.5966 32.9737 22.7212 32.9798 22.8861 32.9899C23.052 32.9992 23.1783 33.0044 23.2608 33.0044ZM25.4103 34.5587C25.7146 34.5587 25.9542 34.4989 26.1268 34.3799C26.3031 34.2585 26.3915 34.091 26.3915 33.8756C26.3915 33.6301 26.2952 33.4397 26.108 33.2994C25.9234 33.1566 25.6707 33.089 25.3476 33.089C25.0125 33.089 24.7522 33.1498 24.5675 33.2736C24.383 33.3966 24.2892 33.5685 24.2892 33.7909C24.2892 34.0346 24.3871 34.226 24.5872 34.3594C24.7806 34.4935 25.0547 34.5587 25.4103 34.5587ZM25.2557 34.6819C24.7831 34.6819 24.4206 34.6132 24.1646 34.4681C23.9102 34.3288 23.7808 34.1235 23.7808 33.86C23.7808 33.5739 23.9215 33.3558 24.1981 33.202C24.4758 33.0498 24.8752 32.973 25.4017 32.973C25.8931 32.973 26.267 33.0429 26.5127 33.1754C26.7661 33.3114 26.8907 33.5148 26.8907 33.7806C26.8907 34.0568 26.7421 34.2723 26.4475 34.4398C26.1484 34.6057 25.7523 34.6819 25.2557 34.6819ZM27.3649 33.0044H28.0463C28.0018 33.0291 27.9671 33.0882 27.9509 33.1789C27.9293 33.2678 27.9225 33.461 27.9225 33.7558V33.8609C27.9225 34.0458 27.9254 34.1987 27.9327 34.3217C27.9406 34.4459 27.9534 34.5252 27.9671 34.5576L28.0729 34.5595H28.2309C28.4939 34.5595 28.6958 34.5483 28.8375 34.5192C28.9758 34.4944 29.0917 34.4459 29.1787 34.3825L29.0686 34.6399C29.0034 34.6457 28.9252 34.6475 28.8375 34.6518C28.7543 34.6569 28.6648 34.6569 28.5694 34.6569C28.4929 34.6569 28.3393 34.6569 28.1116 34.6569C27.8847 34.6527 27.6905 34.6518 27.5395 34.6518H27.3649C27.4121 34.6304 27.4431 34.5705 27.4613 34.4809C27.4834 34.3926 27.4912 34.1961 27.4912 33.9013V33.7926C27.4912 33.4721 27.4834 33.2635 27.4613 33.1762C27.4431 33.0882 27.4121 33.0291 27.3649 33.0044ZM29.573 33.0044H30.25C30.2086 33.0291 30.1726 33.0882 30.1556 33.1789C30.1375 33.2678 30.127 33.461 30.127 33.7558V33.8609C30.127 34.0458 30.128 34.1987 30.1375 34.3217C30.1467 34.4459 30.158 34.5252 30.1726 34.5576L30.2766 34.5595H30.4362C30.6949 34.5595 30.9013 34.5483 31.0413 34.5192C31.1786 34.4944 31.2972 34.4459 31.3857 34.3825L31.2758 34.6399C31.2055 34.6457 31.1297 34.6475 31.0439 34.6518C30.9597 34.6569 30.8704 34.6569 30.7724 34.6569C30.6949 34.6569 30.5448 34.6569 30.3188 34.6569C30.0894 34.6527 29.8987 34.6518 29.7413 34.6518H29.573C29.6159 34.6304 29.6485 34.5705 29.6692 34.4809C29.6889 34.3926 29.6984 34.1961 29.6984 33.9013V33.7926C29.6984 33.4721 29.6889 33.2635 29.6692 33.1762C29.6485 33.0882 29.6159 33.0291 29.573 33.0044ZM31.7792 34.651C31.8207 34.6304 31.8532 34.5696 31.872 34.4798C31.8944 34.392 31.9029 34.1951 31.9029 33.9004V33.7926C31.9029 33.4711 31.8944 33.2625 31.872 33.1754C31.8532 33.0872 31.8207 33.0291 31.7792 33.0037H32.0878C32.3102 33.0037 32.561 33.0037 32.8447 32.9985C33.1238 32.9985 33.2964 32.9985 33.3549 32.9985H33.5327L33.5732 33.2406C33.5327 33.1891 33.4528 33.1515 33.3341 33.1326C33.2141 33.1104 32.9916 33.1019 32.6591 33.1019H32.3791C32.3636 33.1386 32.3481 33.1953 32.341 33.2788C32.3342 33.3624 32.3318 33.4833 32.3318 33.6413V33.7251L32.4709 33.7295C32.5249 33.7295 32.6109 33.7295 32.7252 33.7295C32.9236 33.7295 33.0851 33.7295 33.2209 33.7251C33.3549 33.7183 33.4763 33.7131 33.5801 33.7021C33.4908 33.7577 33.3687 33.7926 33.2141 33.8158C33.0672 33.8388 32.8138 33.8509 32.4606 33.8509H32.4064L32.3318 33.8483V34.0138C32.3318 34.1722 32.3342 34.2937 32.341 34.3799C32.3481 34.4609 32.3636 34.5185 32.3791 34.5576H32.6711C32.9984 34.5576 33.2475 34.5466 33.4161 34.5168C33.5801 34.4901 33.708 34.4459 33.8001 34.3825L33.7167 34.6388C33.6479 34.645 33.5732 34.6475 33.4888 34.651C33.3988 34.656 33.3103 34.656 33.2141 34.656C33.1394 34.656 32.9872 34.656 32.7595 34.656C32.5327 34.6518 32.3386 34.651 32.1898 34.651H31.7792ZM36.3895 33.8251H37.0614L36.9692 33.9681C36.9557 34.0311 36.9454 34.137 36.9454 34.2954C36.9454 34.3988 36.9512 34.4765 36.9607 34.5244L37.0002 34.6422C36.8294 34.645 36.6093 34.656 36.3551 34.6662C36.0991 34.6798 35.9376 34.6819 35.8602 34.6819C35.3095 34.6819 34.8878 34.6149 34.5931 34.4765C34.2984 34.338 34.1513 34.1352 34.1513 33.8756C34.1513 33.5969 34.3317 33.3771 34.6894 33.2156C35.0492 33.0541 35.5389 32.973 36.1583 32.973C36.2724 32.973 36.3911 32.9771 36.5243 32.9832C36.6566 32.9864 36.7942 32.9931 36.942 33.0037V33.3061C36.8183 33.2334 36.6747 33.1806 36.5141 33.1447C36.3526 33.1104 36.1688 33.0907 35.9669 33.0907C35.569 33.0907 35.2555 33.1566 35.0217 33.2891C34.7862 33.4241 34.6754 33.6071 34.6754 33.8328C34.6754 34.0609 34.7966 34.2388 35.0544 34.368C35.3051 34.4935 35.6549 34.5567 36.1033 34.5567L36.3017 34.5518L36.4764 34.5381L36.5036 34.3988L36.5141 34.2328C36.5141 34.1192 36.5036 34.0262 36.4822 33.9629L36.3895 33.8251ZM37.6231 34.651C37.6704 34.6304 37.7024 34.5696 37.7186 34.4798C37.7383 34.392 37.7496 34.1951 37.7496 33.9004V33.7926C37.7496 33.4711 37.7383 33.2625 37.7186 33.1754C37.7024 33.0872 37.6704 33.0291 37.6231 33.0037H37.9341C38.1575 33.0037 38.406 33.0037 38.6887 32.9985C38.9687 32.9985 39.1431 32.9985 39.2015 32.9985H39.3793L39.418 33.2406C39.3793 33.1891 39.2985 33.1515 39.1817 33.1326C39.0639 33.1104 38.8413 33.1019 38.5012 33.1019H38.2281C38.2091 33.1386 38.1963 33.1953 38.1877 33.2788C38.1809 33.3624 38.1782 33.4833 38.1782 33.6413V33.7251L38.3182 33.7295C38.37 33.7295 38.4566 33.7295 38.5718 33.7295C38.7702 33.7295 38.9325 33.7295 39.0684 33.7251C39.2015 33.7183 39.3235 33.7131 39.4267 33.7021C39.3346 33.7577 39.2152 33.7926 39.0639 33.8158C38.9138 33.8388 38.6602 33.8509 38.3106 33.8509H38.2557L38.1782 33.8483V34.0138C38.1782 34.1722 38.1809 34.2937 38.1877 34.3799C38.1963 34.4609 38.2091 34.5185 38.2281 34.5576H38.5132C38.8424 34.5576 39.0958 34.5466 39.2601 34.5168C39.4267 34.4901 39.5572 34.4459 39.6456 34.3825L39.5598 34.6388C39.4935 34.645 39.418 34.6475 39.332 34.651C39.2488 34.656 39.1544 34.656 39.0639 34.656C38.9886 34.656 38.8345 34.656 38.6051 34.656C38.3768 34.6518 38.1877 34.651 38.0355 34.651H37.6231ZM42.9412 34.5587C43.2462 34.5587 43.4861 34.4989 43.6613 34.3799C43.8322 34.2585 43.9242 34.091 43.9242 33.8756C43.9242 33.6301 43.8281 33.4397 43.6425 33.2994C43.4586 33.1566 43.1999 33.089 42.882 33.089C42.5444 33.089 42.2874 33.1498 42.0994 33.2736C41.914 33.3966 41.8218 33.5685 41.8218 33.7909C41.8218 34.0346 41.92 34.226 42.1182 34.3594C42.3093 34.4935 42.5891 34.5587 42.9412 34.5587ZM42.7884 34.6819C42.3149 34.6819 41.9498 34.6132 41.6963 34.4681C41.4421 34.3288 41.3106 34.1235 41.3106 33.86C41.3106 33.5739 41.4533 33.3558 41.7301 33.202C42.0107 33.0498 42.4112 32.973 42.9327 32.973C43.425 32.973 43.7988 33.0429 44.0505 33.1754C44.2979 33.3114 44.4217 33.5148 44.4217 33.7806C44.4217 34.0568 44.2747 34.2723 43.9766 34.4398C43.6803 34.6057 43.2826 34.6819 42.7884 34.6819ZM45.4551 33.7619C45.5585 33.7653 45.6529 33.7677 45.7328 33.7677C45.8151 33.7704 45.8933 33.7704 45.9639 33.7704C46.0876 33.7704 46.2103 33.7677 46.3273 33.7653C46.4407 33.7584 46.5532 33.7509 46.6657 33.7413C46.5954 33.7961 46.4948 33.8336 46.3617 33.8567C46.2276 33.8789 45.988 33.8908 45.6367 33.8908H45.4551V34.0148C45.4551 34.2689 45.4622 34.4286 45.482 34.504L45.5815 34.651H44.8977C44.945 34.6304 44.9775 34.5705 44.9939 34.4798C45.0154 34.3926 45.0221 34.1961 45.0221 33.9013V33.7926C45.0221 33.4721 45.0154 33.2635 44.9939 33.1754C44.9775 33.0882 44.945 33.0291 44.8977 33.0044H45.2447C45.3134 33.0044 45.4509 33.0044 45.6563 32.9985C45.8582 32.9985 46.0359 32.9985 46.17 32.9985C46.2827 32.9985 46.3823 32.9985 46.4741 32.9985C46.5635 33.0044 46.6426 33.0089 46.7131 33.0129L46.7311 33.2242C46.6848 33.1789 46.5954 33.1455 46.4741 33.1276C46.348 33.1085 46.1462 33.0968 45.8694 33.0968L45.6913 33.1019L45.5024 33.1062C45.4843 33.1411 45.4724 33.2036 45.4647 33.2847C45.4577 33.3686 45.4551 33.485 45.4551 33.6422V33.7619ZM48.421 34.651C48.4641 34.6304 48.494 34.5696 48.5156 34.4798C48.5345 34.392 48.5448 34.1951 48.5448 33.9004V33.7926C48.5448 33.4711 48.5345 33.2625 48.5156 33.1754C48.494 33.0872 48.4641 33.0291 48.421 33.0037H48.7313C48.951 33.0037 49.201 33.0037 49.4872 32.9985C49.7638 32.9985 49.9427 32.9985 49.9976 32.9985H50.1728L50.2158 33.2406C50.1728 33.1891 50.0997 33.1515 49.9769 33.1326C49.8566 33.1104 49.635 33.1019 49.3008 33.1019H49.0172C49.0018 33.1386 48.9916 33.1953 48.9837 33.2788C48.977 33.3624 48.9743 33.4833 48.9743 33.6413V33.7251L49.1154 33.7295C49.1694 33.7295 49.2483 33.7295 49.3661 33.7295C49.5654 33.7295 49.7295 33.7295 49.8645 33.7251C49.9967 33.7183 50.117 33.7131 50.2243 33.7021C50.1306 33.7577 50.0106 33.7926 49.8566 33.8158C49.7105 33.8388 49.4572 33.8509 49.1048 33.8509H49.0492L48.9743 33.8483V34.0138C48.9743 34.1722 48.977 34.2937 48.9837 34.3799C48.9916 34.4609 49.0018 34.5185 49.0172 34.5576H49.3094C49.6384 34.5576 49.8885 34.5466 50.0562 34.5168C50.2243 34.4901 50.3549 34.4459 50.4453 34.3825L50.3593 34.6388C50.2896 34.645 50.2175 34.6475 50.1306 34.651C50.0423 34.656 49.9504 34.656 49.8566 34.656C49.7812 34.656 49.6306 34.656 49.404 34.656C49.1754 34.6518 48.9812 34.651 48.8325 34.651H48.421ZM51.2401 33.1986L51.2571 34.0311C51.2596 34.232 51.2733 34.3733 51.2967 34.4569C51.3251 34.5433 51.3644 34.6081 51.4239 34.6511H50.8385C50.9065 34.6091 50.9514 34.5134 50.9858 34.3559C51.0105 34.1987 51.0252 33.9756 51.0252 33.6765C51.0252 33.4096 51.0132 33.2406 50.9858 33.16C50.9588 33.0822 50.9075 33.0291 50.8385 33.0034H51.3568C51.4581 33.0034 51.5612 33.0498 51.6764 33.1411L51.7495 33.1953C51.8422 33.2669 51.9883 33.3771 52.1876 33.5336C52.6403 33.8908 53.0106 34.1644 53.2899 34.362L53.2949 33.6422C53.2949 33.409 53.2855 33.2532 53.264 33.1695C53.2426 33.089 53.2073 33.0308 53.1627 33.0034H53.6386C53.588 33.0291 53.5536 33.089 53.5372 33.1908C53.5184 33.2917 53.5081 33.5001 53.5081 33.808V34.662H53.1824C53.0717 34.5696 52.7906 34.362 52.3508 34.0335C51.9119 33.7038 51.5407 33.4276 51.2401 33.1986ZM56.3528 33.8251H57.0244L56.9361 33.9681C56.9164 34.0311 56.912 34.137 56.912 34.2954C56.912 34.3988 56.912 34.4765 56.9214 34.5244L56.9636 34.6422C56.7858 34.645 56.5744 34.656 56.3202 34.6662C56.065 34.6798 55.8956 34.6819 55.8209 34.6819C55.2685 34.6819 54.8474 34.6149 54.5572 34.4765C54.2615 34.338 54.1154 34.1352 54.1154 33.8756C54.1154 33.5969 54.2942 33.3771 54.6525 33.2156C55.0141 33.0541 55.5022 32.973 56.1208 32.973C56.2332 32.973 56.3562 32.9771 56.4868 32.9832C56.6173 32.9864 56.7583 32.9931 56.9041 33.0037V33.3061C56.7788 33.2334 56.638 33.1806 56.4712 33.1447C56.3096 33.1104 56.132 33.0907 55.93 33.0907C55.5331 33.0907 55.2143 33.1566 54.9831 33.2891C54.753 33.4241 54.6362 33.6071 54.6362 33.8328C54.6362 34.0609 54.765 34.2388 55.0151 34.368C55.2685 34.4935 55.619 34.5567 56.0666 34.5567L56.2652 34.5518L56.4368 34.5381L56.4687 34.3988L56.4738 34.2328C56.4738 34.1192 56.4687 34.0262 56.4489 33.9629L56.3528 33.8251ZM57.589 34.651C57.6339 34.6304 57.6637 34.5696 57.6818 34.4798C57.7025 34.392 57.7103 34.1951 57.7103 33.9004V33.7926C57.7103 33.4711 57.7025 33.2625 57.6818 33.1754C57.6637 33.0872 57.6339 33.0291 57.589 33.0037H58.2643C58.2215 33.0291 58.188 33.0839 58.1664 33.1695C58.1502 33.2574 58.1413 33.4414 58.1413 33.7278V33.9277C58.1413 34.2124 58.1502 34.3988 58.1664 34.4868C58.188 34.5739 58.2215 34.6304 58.2643 34.651H57.589ZM59.1905 33.1986L59.2035 34.0311C59.2075 34.232 59.2206 34.3733 59.2463 34.4569C59.2695 34.5433 59.3116 34.6081 59.371 34.6511H58.7892C58.8529 34.6091 58.9002 34.5134 58.9275 34.3559C58.9585 34.1987 58.9758 33.9756 58.9758 33.6765C58.9758 33.4096 58.9585 33.2406 58.9319 33.16C58.9044 33.0822 58.8571 33.0291 58.7892 33.0034H59.3074C59.4036 33.0034 59.5094 33.0498 59.6226 33.1411L59.694 33.1953C59.7901 33.2669 59.9345 33.3771 60.132 33.5336C60.591 33.8908 60.958 34.1644 61.237 34.362L61.2388 33.6422C61.2388 33.409 61.2308 33.2532 61.2138 33.1695C61.1931 33.089 61.1528 33.0308 61.1081 33.0034H61.585C61.5361 33.0291 61.5035 33.089 61.4844 33.1908C61.4637 33.2917 61.4528 33.5001 61.4528 33.808V34.662H61.1314C61.0187 34.5696 60.7421 34.362 60.2996 34.0335C59.8571 33.7038 59.4887 33.4276 59.1905 33.1986ZM62.1683 34.651C62.2121 34.6304 62.2465 34.5696 62.2628 34.4798C62.2808 34.392 62.293 34.1951 62.293 33.9004V33.7926C62.293 33.4711 62.2808 33.2625 62.2628 33.1754C62.2465 33.0872 62.2121 33.0291 62.1683 33.0037H62.4769C62.7027 33.0037 62.9501 33.0037 63.2338 32.9985C63.5171 32.9985 63.6856 32.9985 63.7467 32.9985H63.9217L63.9622 33.2406C63.9217 33.1891 63.8436 33.1515 63.7259 33.1326C63.6083 33.1104 63.3814 33.1019 63.049 33.1019H62.7706C62.7542 33.1386 62.7413 33.1953 62.7318 33.2788C62.726 33.3624 62.7225 33.4833 62.7225 33.6413V33.7251L62.8643 33.7295C62.9151 33.7295 62.9992 33.7295 63.1169 33.7295C63.3103 33.7295 63.4751 33.7295 63.6134 33.7251C63.744 33.7183 63.8669 33.7131 63.9726 33.7021C63.8816 33.7577 63.7612 33.7926 63.6083 33.8158C63.4588 33.8388 63.2062 33.8509 62.8514 33.8509H62.7955L62.7225 33.8483V34.0138C62.7225 34.1722 62.726 34.2937 62.7318 34.3799C62.7413 34.4609 62.7542 34.5185 62.7706 34.5576H63.0558C63.3909 34.5576 63.6409 34.5466 63.8052 34.5168C63.9726 34.4901 64.1023 34.4459 64.1926 34.3825L64.1065 34.6388C64.0369 34.645 63.9622 34.6475 63.8771 34.651C63.793 34.656 63.6994 34.656 63.6083 34.656C63.5309 34.656 63.3796 34.656 63.1502 34.656C62.9252 34.6518 62.7319 34.651 62.5772 34.651H62.1683ZM64.6504 34.651C64.6951 34.6304 64.7286 34.5696 64.7466 34.4798C64.7646 34.392 64.7749 34.1951 64.7749 33.9004V33.7926C64.7749 33.4711 64.7646 33.2625 64.7466 33.1754C64.7286 33.0872 64.6951 33.0291 64.6504 33.0037H64.9624C65.1824 33.0037 65.4349 33.0037 65.7157 32.9985C65.9933 32.9985 66.1678 32.9985 66.2261 32.9985H66.4039L66.4416 33.2406C66.4039 33.1891 66.3275 33.1515 66.2053 33.1326C66.0885 33.1104 65.8635 33.1019 65.5337 33.1019H65.2501C65.2365 33.1386 65.2191 33.1953 65.215 33.2788C65.2099 33.3624 65.2053 33.4833 65.2053 33.6413V33.7251L65.3427 33.7295C65.397 33.7295 65.4795 33.7295 65.5964 33.7295C65.7966 33.7295 65.9597 33.7295 66.0929 33.7251C66.2261 33.7183 66.3472 33.7131 66.4529 33.7021C66.3652 33.7577 66.2425 33.7926 66.0896 33.8158C65.9409 33.8388 65.6884 33.8509 65.3336 33.8509H65.2785L65.2053 33.8483V34.0138C65.2053 34.1722 65.2099 34.2937 65.215 34.3799C65.2191 34.4609 65.2365 34.5185 65.2501 34.5576H65.5423C65.8729 34.5576 66.1187 34.5466 66.2869 34.5168C66.4529 34.4901 66.5843 34.4459 66.6738 34.3825L66.5888 34.6388C66.5226 34.645 66.4445 34.6475 66.3618 34.651C66.2733 34.656 66.184 34.656 66.0885 34.656C66.0103 34.656 65.8593 34.656 65.6316 34.656C65.4047 34.6518 65.2122 34.651 65.0621 34.651H64.6504ZM67.6876 33.7577L67.7829 33.7645L67.9014 33.767C68.1421 33.767 68.3294 33.7352 68.4575 33.6669C68.5869 33.6071 68.6549 33.513 68.6549 33.39C68.6549 33.2891 68.6042 33.2122 68.5071 33.16C68.4058 33.1146 68.2519 33.089 68.0499 33.089C67.9677 33.089 67.9048 33.089 67.8637 33.0907L67.7349 33.0959C67.7176 33.1326 67.7063 33.1908 67.6985 33.2713C67.6911 33.3498 67.6876 33.4634 67.6876 33.6132V33.7577ZM67.2768 33.0037C67.4718 33.0037 67.6911 33.0037 67.9307 32.9931C68.1738 32.9891 68.3199 32.9864 68.3646 32.9864C68.6171 32.9864 68.8113 33.0157 68.9418 33.0686C69.0734 33.1269 69.1342 33.2071 69.1342 33.3173C69.1342 33.4225 69.0734 33.5148 68.9435 33.5969C68.8147 33.6807 68.624 33.749 68.3756 33.7994L69.093 34.3142C69.2108 34.3988 69.3207 34.4681 69.4204 34.5279C69.5254 34.5825 69.6102 34.6245 69.6962 34.651H69.2178L69.0734 34.6422L68.9659 34.5852L68.1085 33.9703L67.9358 33.8789C67.879 33.8677 67.8113 33.8585 67.7243 33.8585H67.6876V34.0138C67.6876 34.2678 67.6945 34.4286 67.7115 34.503L67.8113 34.651H67.135C67.1797 34.6295 67.2098 34.5696 67.2288 34.4798C67.2493 34.392 67.2563 34.1951 67.2563 33.9004V33.7916C67.2563 33.4711 67.2493 33.2625 67.2288 33.1754C67.2098 33.0872 67.1797 33.0284 67.135 33.0037H67.2768ZM69.777 34.651C69.8258 34.6304 69.8561 34.5696 69.8741 34.4798C69.8938 34.392 69.9023 34.1951 69.9023 33.9004V33.7926C69.9023 33.4711 69.8938 33.2625 69.8741 33.1754C69.8561 33.0872 69.8258 33.0291 69.777 33.0037H70.46C70.4127 33.0291 70.3792 33.0839 70.3612 33.1695C70.3431 33.2574 70.3329 33.4414 70.3329 33.7278V33.9277C70.3329 34.2124 70.3431 34.3988 70.3612 34.4868C70.3792 34.5739 70.4127 34.6304 70.46 34.651H69.777ZM71.3829 33.1986L71.3938 34.0311C71.3975 34.232 71.4127 34.3733 71.4386 34.4569C71.4634 34.5433 71.5065 34.6081 71.564 34.6511H70.9808C71.0443 34.6091 71.0939 34.5134 71.1207 34.3559C71.1516 34.1987 71.1671 33.9756 71.1671 33.6765C71.1671 33.4096 71.1558 33.2406 71.1242 33.16C71.1001 33.0822 71.0518 33.0291 70.9808 33.0034H71.5021C71.5956 33.0034 71.7031 33.0498 71.8157 33.1411L71.8862 33.1953C71.9834 33.2669 72.1285 33.3771 72.3277 33.5336C72.7798 33.8908 73.1499 34.1644 73.4258 34.362L73.4326 33.6422C73.4326 33.409 73.423 33.2532 73.4017 33.1695C73.3836 33.089 73.3484 33.0308 73.3046 33.0034H73.7797C73.7307 33.0291 73.6947 33.089 73.674 33.1908C73.6603 33.2917 73.6475 33.5001 73.6475 33.808V34.662H73.3209C73.211 34.5696 72.9345 34.362 72.4953 34.0335C72.0511 33.7038 71.6843 33.4276 71.3829 33.1986ZM76.4938 33.8251H77.1649L77.0739 33.9681C77.06 34.0311 77.0497 34.137 77.0497 34.2954C77.0497 34.3988 77.0557 34.4765 77.0642 34.5244L77.1031 34.6422C76.9294 34.645 76.7103 34.656 76.4577 34.6662C76.2008 34.6798 76.0393 34.6819 75.9611 34.6819C75.4095 34.6819 74.9911 34.6149 74.6946 34.4765C74.4001 34.338 74.2548 34.1352 74.2548 33.8756C74.2548 33.5969 74.4345 33.3771 74.7909 33.2156C75.1517 33.0541 75.6416 32.973 76.2619 32.973C76.371 32.973 76.4938 32.9771 76.6268 32.9832C76.7608 32.9864 76.8985 32.9931 77.042 33.0037V33.3061C76.9192 33.2334 76.7754 33.1806 76.614 33.1447C76.4509 33.1104 76.2713 33.0907 76.0703 33.0907C75.6716 33.0907 75.3605 33.1566 75.127 33.2891C74.8924 33.4241 74.779 33.6071 74.779 33.8328C74.779 34.0609 74.9061 34.2388 75.1563 34.368C75.4077 34.4935 75.7602 34.5567 76.2052 34.5567L76.4034 34.5518L76.5772 34.5381L76.6062 34.3988L76.615 34.2328C76.615 34.1192 76.6062 34.0262 76.584 33.9629L76.4938 33.8251Z" fill="#1E3476"/>
<path id="_129922904" fill-rule="evenodd" clip-rule="evenodd" d="M98.1031 21.4304C98.1006 21.4304 76.7301 21.4304 74.5978 21.4304C76.0703 22.1067 77.182 23.1872 77.566 24.7892C77.6408 25.1012 77.6925 25.5524 77.725 26.0716C77.8607 28.071 77.755 31.1273 77.755 31.1273C79.0825 29.3251 79.1838 25.3713 79.1838 25.3713H95.4133C95.5264 25.3364 95.639 25.2954 95.7448 25.249C96.1624 25.0885 96.5016 24.879 96.785 24.6559C98.3102 23.4188 98.1126 21.4861 98.1031 21.4304Z" fill="#1E3476"/>
<path id="_129922832" fill-rule="evenodd" clip-rule="evenodd" d="M20.4197 31.1273C20.4197 31.1273 20.3167 28.0744 20.4507 26.0775C20.4911 25.5524 20.5425 25.1012 20.6139 24.7892C21.0013 23.1872 22.0573 22.1118 23.5369 21.4304C21.4112 21.4304 0.076672 21.4304 0.076672 21.4304C0.0715723 21.4885 -0.132891 23.4188 1.39647 24.6559C1.67658 24.879 2.01845 25.0885 2.43248 25.25C2.5408 25.2954 2.65338 25.3364 2.76925 25.3713H18.9953C18.9953 25.3713 19.0932 29.3251 20.4197 31.1273Z" fill="#1E3476"/>
<path id="_129922760" fill-rule="evenodd" clip-rule="evenodd" d="M18.6421 26.2391H3.67563V26.4014C3.67563 26.4014 3.83476 26.6895 4.13357 27.0606C4.28241 27.2368 4.44891 27.4316 4.65006 27.6283C5.05625 28.0268 5.57784 28.4156 6.19992 28.6226H18.6421L18.6421 26.2391Z" fill="#1E3476"/>
<path id="_129922688" fill-rule="evenodd" clip-rule="evenodd" d="M19.1497 30.4259C19.0192 30.0762 18.8867 29.7052 18.8011 29.3341L7.3606 29.4348C7.3606 29.4348 7.49886 29.6485 7.76093 29.9496C7.87596 30.0872 8.01526 30.236 8.18629 30.383C8.52372 30.6968 8.96287 31.0275 9.49041 31.2652H19.4822C19.4822 31.2652 19.3174 30.8846 19.1497 30.4259Z" fill="#1E3476"/>
<path id="_129922616" fill-rule="evenodd" clip-rule="evenodd" d="M79.379 29.3341C79.2914 29.7052 79.1582 30.0762 79.0284 30.4259C78.8617 30.8846 78.6987 31.2652 78.6987 31.2652H88.6871C89.2147 31.0275 89.6552 30.6968 89.9963 30.383C90.163 30.236 90.2995 30.0872 90.4155 29.9496C90.6828 29.6485 90.8229 29.4348 90.8229 29.4348L79.379 29.3341Z" fill="#1E3476"/>
<path id="_129480336" fill-rule="evenodd" clip-rule="evenodd" d="M25.8038 31.2975H21.6646L21.6551 26.0648C21.6551 26.0648 21.5899 21.8171 26.9552 21.563C32.3214 21.3034 41.505 21.563 41.505 21.563C41.505 21.563 37.4634 23.4583 39.5021 29.9877C39.9912 31.4208 39.5803 31.2857 38.8828 31.2857C35.8269 31.2857 34.8499 31.3676 34.8499 31.2924V28.8981H25.7929L25.8038 31.2975ZM25.7929 26.2599C25.7929 26.2599 25.2738 24.2029 28.5738 23.8755C31.8687 23.5557 34.7794 23.8755 34.7794 23.8755V26.2537L25.7929 26.2599Z" fill="#1E3476"/>
<path id="_129480264" d="M23.845 20.7356C24.0591 19.8389 24.3175 18.9566 24.6166 18.0921C26.5703 18.3574 28.3839 17.2991 29.2852 15.5995C30.1985 13.8708 30.0489 11.7032 28.8669 10.1181C29.91 8.7452 31.0792 7.4723 32.3679 6.31814C35.7743 9.31711 40.8209 6.06677 39.9533 1.54033C41.505 0.899924 43.1075 0.423778 44.749 0.109071C46.1135 4.78203 52.4558 4.70486 53.7255 -0.00012207C55.3743 0.277561 56.9937 0.717997 58.5472 1.30954C58.4766 1.5657 58.4303 1.83427 58.3984 2.09936C57.9559 6.71066 63.3093 9.42123 66.4153 6.05051C67.7014 7.1712 68.8819 8.42297 69.9368 9.75987C68.3577 11.3457 68.0571 13.8299 69.0942 15.7637C70.1191 17.6761 72.2979 18.7456 74.4654 18.0887C74.7627 18.9506 75.023 19.8389 75.2386 20.7305L61.5557 20.72L61.6993 20.6493C59.3238 15.8825 54.5864 12.6253 49.1275 12.6253C43.6624 12.6253 38.925 15.8859 36.5503 20.6571L36.6855 20.7238L23.845 20.7356ZM61.216 20.7197L59.7317 20.7186C59.5404 20.4046 59.3391 20.1049 59.1294 19.814C54.2919 13.1349 44.8161 12.8837 39.6826 19.3439C39.3346 19.7824 39.0194 20.2431 38.7256 20.722L37.0357 20.7235C39.3644 16.1696 43.9059 13.0862 49.1274 13.0862C54.3445 13.0862 58.8881 16.169 61.216 20.7197Z" fill="#8FC0D6"/>
<path id="_129480192" fill-rule="evenodd" clip-rule="evenodd" d="M40.1516 20.7636V19.2676C40.2522 18.8958 40.6211 18.5727 40.9265 18.3597C41.1586 18.2033 41.3467 18.1066 41.3467 18.1066V20.7636L40.1516 20.7636Z" fill="#1E3476"/>
<path id="_129480120" fill-rule="evenodd" clip-rule="evenodd" d="M42.165 20.7637V17.8118C42.2673 17.445 42.6367 17.1134 42.945 16.9023C43.1744 16.7373 43.36 16.6439 43.36 16.6439V20.7637L42.165 20.7637Z" fill="#1E3476"/>
<path id="_129480048" fill-rule="evenodd" clip-rule="evenodd" d="M44.298 20.7638V16.3525C44.3873 16.0201 44.696 15.7841 44.994 15.6346C45.2604 15.5064 45.4923 15.4421 45.4923 15.4421V20.7638L44.298 20.7638Z" fill="#1E3476"/>
<path id="_129479976" fill-rule="evenodd" clip-rule="evenodd" d="M46.5137 20.7638L46.5118 15.7841C46.5961 15.4679 46.8925 15.2687 47.1847 15.1506C47.4767 15.0363 47.7438 15.0038 47.7438 15.0038L47.7078 20.7638L46.5137 20.7638Z" fill="#1E3476"/>
<path id="_129479904" fill-rule="evenodd" clip-rule="evenodd" d="M48.5972 20.7634L48.6067 15.2324C48.7279 14.7769 49.7753 14.6768 49.7778 15.2257L49.7949 20.7652L48.5972 20.7634Z" fill="#1E3476"/>
<path id="_129479832" fill-rule="evenodd" clip-rule="evenodd" d="M58.1502 20.7636V19.2676C58.0529 18.8958 57.6845 18.5727 57.376 18.3597C57.1466 18.2033 56.9534 18.1066 56.9534 18.1066V20.7636L58.1502 20.7636Z" fill="#1E3476"/>
<path id="_129479760" fill-rule="evenodd" clip-rule="evenodd" d="M56.1421 20.7637V17.8118C56.0417 17.445 55.6689 17.1134 55.362 16.9023C55.1354 16.7373 54.9447 16.6439 54.9447 16.6439V20.7637L56.1421 20.7637Z" fill="#1E3476"/>
<path id="_129479688" fill-rule="evenodd" clip-rule="evenodd" d="M54.009 20.7638V16.3525C53.9171 16.0201 53.6114 15.7841 53.3113 15.6346C53.0426 15.5064 52.8097 15.4421 52.8097 15.4421V20.7638L54.009 20.7638Z" fill="#1E3476"/>
<path id="_129479616" fill-rule="evenodd" clip-rule="evenodd" d="M51.7916 20.7638V15.7841C51.7125 15.4679 51.4117 15.2687 51.117 15.1506C50.8319 15.0363 50.562 15.0038 50.562 15.0038L50.5955 20.7638L51.7916 20.7638Z" fill="#1E3476"/>
<path id="_129479544" d="M23.845 36.3702C24.0591 37.2695 24.3175 38.1501 24.6166 39.0119C26.5703 38.7567 28.3839 39.8069 29.2852 41.5029C30.1985 43.2338 30.0489 45.4063 28.8669 46.9827C29.91 48.3599 31.0792 49.6334 32.3679 50.7901C35.7743 47.7903 40.8209 51.0389 39.9533 55.5697C41.505 56.2008 43.1075 56.6787 44.749 56.9984C46.1135 52.3282 52.4558 52.4026 53.7255 57.106C55.3743 56.8308 56.9937 56.3879 58.5472 55.7998C58.4766 55.5367 58.4303 55.2741 58.3984 55.0083C57.9559 50.3994 63.3093 47.6862 66.4153 51.0552C67.7014 49.9319 68.8819 48.683 69.9368 47.3452C68.3578 45.7585 68.0571 43.2802 69.0942 41.344C70.1191 39.4307 72.2979 38.3629 74.4654 39.0246C74.7627 38.1543 75.023 37.2695 75.2386 36.382L61.5607 36.3904L61.6983 36.4581C59.3238 41.226 54.5855 44.4821 49.1266 44.483C43.6624 44.4821 38.924 41.2243 36.5492 36.4506L36.6834 36.3842L23.845 36.3702ZM61.2139 36.3905L59.7316 36.3915C59.5403 36.7036 59.3391 37.0011 59.1293 37.2926C54.2918 43.9725 44.8161 44.2224 39.6826 37.7611C39.3346 37.3251 39.0193 36.8671 38.7255 36.3865L37.0349 36.3846C39.3637 40.9407 43.906 44.0214 49.1265 44.0214C54.3427 44.0214 58.8854 40.9404 61.2139 36.3905Z" fill="#8FC0D6"/>
<path id="_129479472" fill-rule="evenodd" clip-rule="evenodd" d="M40.1516 36.3436V37.8388C40.2522 38.2099 40.6211 38.5328 40.9265 38.7459C41.1586 38.9055 41.3467 38.9957 41.3467 38.9957V36.3436L40.1516 36.3436Z" fill="#1E3476"/>
<path id="_129479400" fill-rule="evenodd" clip-rule="evenodd" d="M42.165 36.3436V39.2929C42.2673 39.6621 42.6367 39.9853 42.945 40.2127C43.1744 40.3676 43.36 40.4605 43.36 40.4605V36.3436L42.165 36.3436Z" fill="#1E3476"/>
<path id="_129479328" fill-rule="evenodd" clip-rule="evenodd" d="M44.298 36.3436V40.7554C44.3873 41.0923 44.696 41.3181 44.994 41.4695C45.2604 41.5993 45.4923 41.6574 45.4923 41.6574V36.3436L44.298 36.3436Z" fill="#1E3476"/>
<path id="_129479256" fill-rule="evenodd" clip-rule="evenodd" d="M46.5137 36.3436L46.5118 41.3181C46.5961 41.6422 46.8925 41.8396 47.1847 41.9533C47.4767 42.0721 47.7438 42.1056 47.7438 42.1056L47.7078 36.3436L46.5137 36.3436Z" fill="#1E3476"/>
<path id="_129479184" fill-rule="evenodd" clip-rule="evenodd" d="M48.5972 36.3437L48.6067 41.8773C48.7279 42.3287 49.7753 42.4312 49.7778 41.8789L49.7949 36.3418L48.5972 36.3437Z" fill="#1E3476"/>
<path id="_129479112" fill-rule="evenodd" clip-rule="evenodd" d="M58.1502 36.3436V37.8388C58.0529 38.2099 57.6845 38.5328 57.376 38.7459C57.1466 38.9055 56.9534 38.9957 56.9534 38.9957V36.3436L58.1502 36.3436Z" fill="#1E3476"/>
<path id="_129479040" fill-rule="evenodd" clip-rule="evenodd" d="M56.1421 36.3436V39.2929C56.0417 39.6621 55.6689 39.9853 55.362 40.2127C55.1354 40.3676 54.9447 40.4605 54.9447 40.4605V36.3436L56.1421 36.3436Z" fill="#1E3476"/>
<path id="_129478968" fill-rule="evenodd" clip-rule="evenodd" d="M54.009 36.3436V40.7554C53.9171 41.0923 53.6114 41.3181 53.3113 41.4695C53.0426 41.5993 52.8097 41.6574 52.8097 41.6574V36.3436L54.009 36.3436Z" fill="#1E3476"/>
<path id="_129478896" fill-rule="evenodd" clip-rule="evenodd" d="M51.7916 36.3436V41.3181C51.7125 41.6422 51.4117 41.8396 51.117 41.9533C50.8319 42.0721 50.562 42.1056 50.562 42.1056L50.5955 36.3436L51.7916 36.3436Z" fill="#1E3476"/>
</g>
</g>
</svg>
