<svg width="34" height="34" viewBox="0 0 34 34" fill="none" xmlns="http://www.w3.org/2000/svg">
<g id="Group">
<path id="Vector" d="M16.9991 33.6532C16.0968 33.6532 15.1926 33.5811 14.3109 33.4378C10.4187 32.8094 6.85159 30.8033 4.26802 27.7894C1.65643 24.7428 0.218018 20.8496 0.218018 16.8261C0.218018 7.54768 7.74641 0 16.9991 0C26.2517 0 33.781 7.54862 33.781 16.8261C33.781 20.9114 32.3034 24.8505 29.6189 27.9177C26.9606 30.9569 23.3085 32.9358 19.3351 33.4912C18.5664 33.5989 17.7799 33.6532 16.9991 33.6532ZM16.9991 1.12387C8.36381 1.12387 1.33887 8.16768 1.33887 16.8261C1.33887 24.5789 6.86935 31.0983 14.4893 32.328C16.0249 32.5762 17.6342 32.594 19.1801 32.3776C26.8644 31.3043 32.6593 24.6183 32.6593 16.8261C32.6593 8.16768 25.6343 1.12387 16.9981 1.12387H16.9991Z" fill="#98A2B3"/>
<g id="Group_2">
<path id="Vector_2" d="M8.67111 11.3332C8.23865 10.9304 8.02289 10.4322 8.02289 9.83935C8.02289 9.24652 8.23865 8.7258 8.67111 8.32308C9.10357 7.92036 9.66025 7.71899 10.343 7.71899C11.0258 7.71899 11.5601 7.92036 11.9916 8.32308C12.4241 8.7258 12.6399 9.23153 12.6399 9.83935C12.6399 10.4472 12.4241 10.9304 11.9916 11.3332C11.5592 11.7359 11.0099 11.9372 10.343 11.9372C9.67613 11.9372 9.10357 11.7359 8.67111 11.3332ZM12.2756 13.6427V25.9837H8.38716V13.6427H12.2756Z" fill="#98A2B3"/>
<path id="Vector_3" d="M25.2224 14.8614C26.0696 15.7839 26.4936 17.051 26.4936 18.6638V25.7666H22.7995V19.1648C22.7995 18.3519 22.5893 17.7197 22.169 17.2692C21.7487 16.8188 21.1836 16.594 20.4737 16.594C19.7638 16.594 19.1987 16.8197 18.7784 17.2692C18.3581 17.7197 18.1479 18.3519 18.1479 19.1648V25.7666H14.4323V13.6092H18.1479V15.2219C18.5244 14.6843 19.0316 14.2601 19.6695 13.9473C20.3065 13.6354 21.0239 13.479 21.8206 13.479C23.2404 13.479 24.3743 13.9407 25.2215 14.8623L25.2224 14.8614Z" fill="#98A2B3"/>
</g>
</g>
</svg>
