<svg width="47" height="47" viewBox="0 0 47 47" fill="none" xmlns="http://www.w3.org/2000/svg">
<g id="money-dollar-circle-fill">
<path id="Vector" d="M23.5096 43.089C12.694 43.089 3.92622 34.3214 3.92622 23.5057C3.92622 12.6902 12.694 3.92242 23.5096 3.92242C34.3251 3.92242 43.0929 12.6902 43.0929 23.5057C43.0929 34.3214 34.3251 43.089 23.5096 43.089ZM16.6554 27.4224V31.339H21.5513V35.2557H25.4679V31.339H27.4263C30.1301 31.339 32.3221 29.1471 32.3221 26.4432C32.3221 23.7393 30.1301 21.5474 27.4263 21.5474H19.5929C19.0521 21.5474 18.6137 21.1091 18.6137 20.5682C18.6137 20.0275 19.0521 19.589 19.5929 19.589H30.3638V15.6724H25.4679V11.7558H21.5513V15.6724H19.5929C16.889 15.6724 14.6971 17.8644 14.6971 20.5682C14.6971 23.2721 16.889 25.464 19.5929 25.464H27.4263C27.967 25.464 28.4054 25.9025 28.4054 26.4432C28.4054 26.9841 27.967 27.4224 27.4263 27.4224H16.6554Z" fill="black"/>
</g>
</svg>
