<svg width="96" height="84" viewBox="0 0 96 84" fill="none" xmlns="http://www.w3.org/2000/svg">
<path d="M47.4915 21C47.4915 21 47.2376 21.2539 46.7298 21.7617C43.0228 25.2148 40.4837 28.5664 39.1126 31.8164C38.1478 34.1523 37.5892 36.3613 37.4368 38.4434V40.043C39.1126 40.4492 40.6106 41.3125 41.931 42.6328C43.8606 44.5625 44.8255 46.9492 44.8255 49.793C44.8255 52.5859 43.8606 54.9727 41.931 56.9531C40.0013 58.8828 37.6653 59.8477 34.9231 59.8477C32.4856 59.8477 30.1497 58.9336 27.9153 57.1055C25.7317 55.3281 24.4114 52.7383 23.9544 49.3359C23.8021 48.168 23.7259 47.0254 23.7259 45.9082C23.7259 41.8457 24.7161 37.8594 26.6966 33.9492C30.4036 26.6875 35.0247 22.4727 40.5599 21.3047C42.0325 21 43.4798 20.8477 44.9017 20.8477C45.7142 20.8477 46.5774 20.8984 47.4915 21Z" fill="#BAE7BE"/>
<path d="M72.1437 21C72.1437 21 71.8898 21.2539 71.382 21.7617C67.6749 25.2148 65.1359 28.5664 63.7648 31.8164C62.7999 34.1523 62.2413 36.3613 62.089 38.4434V40.043C63.7648 40.4492 65.2628 41.3125 66.5831 42.6328C68.5128 44.5625 69.4777 46.9492 69.4777 49.793C69.4777 52.5859 68.5128 54.9727 66.5831 56.9531C64.6534 58.8828 62.3175 59.8477 59.5753 59.8477C57.1378 59.8477 54.8019 58.9336 52.5675 57.1055C50.3839 55.3281 49.0636 52.7383 48.6066 49.3359C48.4542 48.168 48.378 47.0254 48.378 45.9082C48.378 41.8457 49.3683 37.8594 51.3487 33.9492C55.0558 26.6875 59.6769 22.4727 65.212 21.3047C66.6847 21 68.132 20.8477 69.5538 20.8477C70.3663 20.8477 71.2296 20.8984 72.1437 21Z" fill="#BAE7BE"/>
</svg>
