<svg width="25" height="25" viewBox="0 0 25 25" fill="none" xmlns="http://www.w3.org/2000/svg">
<g id="eva:chevron-right-outline">
<path id="Vector" d="M11 17.4999C10.8684 17.5007 10.7379 17.4755 10.6161 17.4257C10.4943 17.3759 10.3834 17.3026 10.29 17.2099C10.1963 17.117 10.1219 17.0064 10.0711 16.8845C10.0203 16.7626 9.9942 16.6319 9.9942 16.4999C9.9942 16.3679 10.0203 16.2372 10.0711 16.1154C10.1219 15.9935 10.1963 15.8829 10.29 15.7899L13.6 12.4999L10.42 9.18993C10.2337 9.00257 10.1292 8.74911 10.1292 8.48493C10.1292 8.22074 10.2337 7.96729 10.42 7.77993C10.513 7.6862 10.6236 7.61181 10.7454 7.56104C10.8673 7.51027 10.998 7.48413 11.13 7.48413C11.262 7.48413 11.3927 7.51027 11.5146 7.56104C11.6364 7.61181 11.747 7.6862 11.84 7.77993L15.7 11.7799C15.8832 11.9669 15.9859 12.2182 15.9859 12.4799C15.9859 12.7417 15.8832 12.993 15.7 13.1799L11.7 17.1799C11.6102 17.2769 11.5022 17.355 11.382 17.41C11.2619 17.4649 11.132 17.4955 11 17.4999Z" fill="#2C2C2C"/>
</g>
</svg>
