<svg width="59" height="66" viewBox="0 0 59 66" fill="none" xmlns="http://www.w3.org/2000/svg">
<path id="Vector" d="M17.06 19.7344V14.2382L29.1154 20.085C29.404 20.2267 29.7213 20.3002 30.0428 20.2999C30.7162 20.4151 34.1899 18.4506 34.8831 18.1964L35.0188 24.7443C34.4901 24.8724 33.9537 24.9668 33.413 25.0271C20.792 26.4633 17.5915 20.9445 17.06 19.7344ZM41.974 19.7684L41.9852 14.7923L37.5294 16.9298L37.6651 23.8057C39.3399 23.0066 41.406 21.3643 41.974 19.7684ZM30.0428 17.5744C30.0428 17.5744 43.77 10.9906 47.832 9.03604C43.0103 6.69429 34.2401 2.45764 29.1607 0C26.7425 1.13353 11.1793 8.4253 11.1793 8.4253L30.0428 17.5744ZM53.5205 6.20871H48.1035L49.9921 7.12475C50.3169 7.28553 50.5956 7.52622 50.8019 7.82422C51.0082 8.12222 51.1354 8.46776 51.1716 8.8284C51.2078 9.18904 51.1517 9.55296 51.0087 9.88599C50.8656 10.219 50.6403 10.5103 50.3539 10.7324H53.5205C53.8937 10.7324 54.3008 11.1847 54.3008 11.852V41.0181C54.3008 41.6741 53.8937 42.149 53.5205 42.149H5.47945C5.10623 42.149 4.69912 41.6741 4.69912 41.0181V11.852C4.69912 11.1847 5.10623 10.7324 5.47945 10.7324H9.81087L9.78823 10.721L8.99657 10.3365C8.64011 10.1571 8.34102 9.88145 8.13318 9.5408C7.92534 9.20014 7.81706 8.80808 7.82059 8.40904C7.82413 8.01 7.93935 7.61993 8.1532 7.28301C8.36705 6.94609 8.67098 6.6758 9.03056 6.50274L9.65247 6.20876H5.47945C4.02862 6.25627 2.65577 6.87687 1.66161 7.93462C0.667462 8.99236 0.133062 10.401 0.175479 11.852V41.0181C0.1308 42.4708 0.664102 43.8819 1.65841 44.942C2.65273 46.002 4.02687 46.6244 5.47945 46.6727H53.5205C54.9731 46.6244 56.3472 46.002 57.3416 44.942C58.3359 43.8819 58.8692 42.4708 58.8245 41.0181V11.852C58.8669 10.401 58.3325 8.99234 57.3384 7.93459C56.3442 6.87683 54.9714 6.25623 53.5205 6.20871ZM6.61036 12.9829V39.8872H52.3896V12.9829H45.7512L44.6542 13.5144V19.6779C44.3076 22.9367 40.7156 25.4499 37.7332 26.6783L37.8574 32.9661L39.6782 36.7546C39.8255 37.0718 39.8421 37.4343 39.7242 37.7635C39.6063 38.0928 39.3636 38.3624 39.0484 38.5141C38.7333 38.6657 38.3711 38.6871 38.0402 38.5737C37.7094 38.4603 37.4365 38.2212 37.2806 37.9081L36.4664 36.2231L35.573 37.9195C35.4057 38.2272 35.1238 38.4565 34.7885 38.5576C34.4532 38.6588 34.0916 38.6237 33.782 38.46C33.4724 38.2962 33.2399 38.017 33.1348 37.683C33.0297 37.3489 33.0606 36.9868 33.2207 36.6754L35.1886 32.9321L35.0754 27.4585C33.2042 27.7815 31.3084 27.9405 29.4095 27.9335C18.7677 27.9335 15.4655 22.6974 14.6625 20.9218C14.4888 20.5502 14.3999 20.1446 14.4024 19.7344V12.9829H6.61036ZM14.4024 12.9603L14.4024 12.9829H14.4589L14.4024 12.9603ZM38.4681 57.8688C36.3346 55.3888 35.198 52.2049 35.2789 48.9345H24.2752C24.3297 52.2827 23.0618 55.5173 20.7466 57.9365C26.4624 60.0869 32.7689 60.0627 38.4681 57.8688ZM38.1967 53.0058C38.5199 53.9194 38.969 54.7835 39.5311 55.573C39.9867 56.2393 40.5351 56.8372 41.1597 57.3485C41.3153 57.4678 41.4376 57.6251 41.5148 57.8054C41.592 57.9856 41.6216 58.1826 41.6007 58.3776C41.5796 58.5725 41.5079 58.7584 41.3929 58.9171C41.2779 59.0758 41.1234 59.2017 40.9448 59.2824C37.3517 60.9512 33.439 61.8195 29.4773 61.8269C25.5397 61.8639 21.6478 60.9809 18.1116 59.2484C17.9469 59.1557 17.8079 59.0234 17.7072 58.8634C17.6065 58.7034 17.5472 58.5208 17.5349 58.3322C17.5225 58.1435 17.5574 57.9548 17.6364 57.783C17.7154 57.6113 17.836 57.462 17.9873 57.3486C19.495 56.2239 20.6584 54.7001 21.346 52.9493C14.3344 54.001 10.1726 56.3195 10.1726 59.1693C10.1727 63.6477 19.8986 66 29.5 66C39.1127 66 48.8385 63.6477 48.8385 59.1693C48.8385 55.2902 41.8382 53.6278 38.1967 53.0058Z" fill="url(#paint0_linear_104_32)"/>
<defs>
<linearGradient id="paint0_linear_104_32" x1="29.5" y1="0" x2="29.5" y2="66" gradientUnits="userSpaceOnUse">
<stop stop-color="#FD4F85"/>
<stop offset="1" stop-color="#FE8F8B"/>
</linearGradient>
</defs>
</svg>
