<svg width="66" height="66" viewBox="0 0 66 66" fill="none" xmlns="http://www.w3.org/2000/svg">
<g id="Group">
<g id="Group_2">
<path id="Vector" d="M52.4117 0C44.92 0 38.8233 6.09648 38.8233 13.5881C38.8233 21.0798 44.9198 27.1763 52.4117 27.1763C59.9035 27.1763 66 21.0798 66 13.5881C66 6.09648 59.9035 0 52.4117 0ZM56.2941 15.5295H52.4117C51.3388 15.5295 50.4706 14.6612 50.4706 13.5884V9.70593C50.4706 8.63289 51.3388 7.76483 52.4117 7.76483C53.4847 7.76483 54.3527 8.63311 54.3527 9.70593V11.647H56.2941C57.3669 11.647 58.2352 12.5153 58.2352 13.5881C58.2352 14.661 57.3671 15.5295 56.2941 15.5295ZM23.2941 25.2354V11.6473H1.9411C0.868054 11.6473 0 12.5155 0 13.5884V64.0589C0 65.132 0.868272 66 1.9411 66H36.8822C37.9552 66 38.8233 65.1317 38.8233 64.0589V27.1765H25.2352C24.1623 27.1765 23.2941 26.3082 23.2941 25.2354ZM9.70593 58.2354C8.63398 58.2354 7.76483 57.3662 7.76483 56.2943C7.76483 55.2223 8.63398 54.3532 9.70593 54.3532C10.7779 54.3532 11.6473 55.2223 11.6473 56.2943C11.647 57.366 10.7779 58.2354 9.70593 58.2354ZM9.70593 50.4706C8.63398 50.4706 7.76483 49.6014 7.76483 48.5294C7.76483 47.4575 8.63398 46.5884 9.70593 46.5884C10.7779 46.5884 11.6473 47.4575 11.6473 48.5294C11.647 49.6014 10.7779 50.4706 9.70593 50.4706ZM9.70593 42.7059C8.63398 42.7059 7.76483 41.8368 7.76483 40.7648C7.76483 39.6929 8.63398 38.8237 9.70593 38.8237C10.7779 38.8237 11.6473 39.6929 11.6473 40.7648C11.647 41.8368 10.7779 42.7059 9.70593 42.7059ZM9.70593 34.9411C8.63398 34.9411 7.76483 34.072 7.76483 33C7.76483 31.928 8.63398 31.0589 9.70593 31.0589C10.7779 31.0589 11.6473 31.928 11.6473 33C11.647 34.072 10.7779 34.9411 9.70593 34.9411ZM29.1176 58.2354H17.4705C16.3977 58.2354 15.5295 57.3671 15.5295 56.2943C15.5295 55.2215 16.3977 54.3532 17.4705 54.3532H29.1176C30.1906 54.3532 31.0587 55.2215 31.0587 56.2943C31.0589 57.3671 30.1906 58.2354 29.1176 58.2354ZM29.1176 50.4706H17.4705C16.3977 50.4706 15.5295 49.6023 15.5295 48.5294C15.5295 47.4564 16.3977 46.5884 17.4705 46.5884H29.1176C30.1906 46.5884 31.0587 47.4566 31.0587 48.5294C31.0589 49.6023 30.1906 50.4706 29.1176 50.4706ZM29.1176 42.7059H17.4705C16.3977 42.7059 15.5295 41.8377 15.5295 40.7648C15.5295 39.6918 16.3977 38.8237 17.4705 38.8237H29.1176C30.1906 38.8237 31.0587 39.692 31.0587 40.7648C31.0589 41.8377 30.1906 42.7059 29.1176 42.7059ZM31.0589 33C31.0589 34.073 30.1906 34.9411 29.1178 34.9411H17.4708C16.3979 34.9411 15.5297 34.0728 15.5297 33C15.5297 31.927 16.3979 31.0589 17.4708 31.0589H29.1178C30.1906 31.0589 31.0589 31.927 31.0589 33ZM27.1765 12.7845V23.2943H37.6862L27.1765 12.7845Z" fill="url(#paint0_linear_104_24)"/>
</g>
</g>
<defs>
<linearGradient id="paint0_linear_104_24" x1="33" y1="66" x2="33" y2="0" gradientUnits="userSpaceOnUse">
<stop stop-color="#FFA68D"/>
<stop offset="1" stop-color="#FD3A84"/>
</linearGradient>
</defs>
</svg>
