<svg width="34" height="34" viewBox="0 0 34 34" fill="none" xmlns="http://www.w3.org/2000/svg">
<g id="Group">
<path id="Vector" d="M16.781 33.6532C15.8797 33.6532 14.9746 33.5811 14.0928 33.4378C10.2007 32.8094 6.63357 30.8033 4.05 27.7894C1.43842 24.7428 0 20.8496 0 16.8261C0 7.54769 7.52837 0 16.781 0C26.0337 0 33.5621 7.54863 33.5621 16.8261C33.5621 20.9114 32.0844 24.8505 29.4 27.9178C26.7417 30.9569 23.0895 32.9358 19.1161 33.4912C18.3474 33.5989 17.561 33.6532 16.7801 33.6532H16.781ZM16.781 1.12387C8.14577 1.12387 1.12085 8.16769 1.12085 16.8261C1.12085 24.578 6.65133 31.0983 14.2713 32.328C15.8078 32.5762 17.4162 32.593 18.962 32.3776C26.6464 31.3043 32.4412 24.6183 32.4412 16.8261C32.4412 8.16769 25.4162 1.12387 16.781 1.12387Z" fill="#98A2B3"/>
<path id="Vector_2" d="M26.369 10.8677C25.9188 11.3238 25.2948 11.6057 24.6036 11.6057C24.5158 11.6057 24.4281 11.601 24.3431 11.5916C25.0642 11.158 25.6208 10.479 25.8982 9.6689C25.8982 9.6689 25.8992 9.6689 25.8992 9.66796C25.9375 9.55932 25.9701 9.44975 25.9963 9.33643C25.4256 9.948 24.6457 10.362 23.7705 10.4603C23.636 10.4762 23.4996 10.4837 23.3614 10.4837C23.3175 10.4837 23.2754 10.4828 23.2334 10.48C22.9373 10.1681 22.5843 9.91053 22.1929 9.72135C21.7567 9.50781 21.2691 9.38231 20.7544 9.36639C20.7124 9.36358 20.6704 9.36265 20.6265 9.36265C20.1903 9.36265 19.7719 9.44038 19.3852 9.58367C19.2861 9.6202 19.1899 9.65953 19.0956 9.70543C17.8701 10.2814 17.022 11.5298 17.022 12.9768C17.022 13.2737 17.0584 13.5622 17.1248 13.8375C16.7493 13.8225 16.3775 13.786 16.0132 13.7317C15.8965 13.7129 15.7797 13.6933 15.6639 13.6708C14.7345 13.4975 13.8481 13.1997 13.0243 12.7951C12.2873 12.4336 11.5999 11.9878 10.975 11.469C10.4492 11.0344 9.96813 10.5493 9.53847 10.0192C9.51979 9.99669 9.50108 9.97328 9.48333 9.95081C9.45811 9.9892 9.43476 10.0276 9.41328 10.0679C9.11251 10.5952 8.94251 11.2049 8.94251 11.8548C8.94251 11.8745 8.94254 11.896 8.94347 11.9157C8.95094 12.4027 9.05368 12.8663 9.23769 13.2877C9.31615 13.4751 9.4114 13.6521 9.52068 13.8197C9.84293 14.317 10.2829 14.731 10.8022 15.0176C10.8256 15.0325 10.8498 15.0447 10.8741 15.056C10.8368 15.0635 10.7985 15.07 10.7602 15.0738C10.6537 15.0878 10.5435 15.0953 10.4332 15.0953C9.88029 15.0953 9.36564 14.922 8.94438 14.627C8.94158 14.6579 8.9416 14.6898 8.9416 14.7216C8.9416 15.7537 9.37313 16.6846 10.0643 17.3412C10.6023 17.8563 11.2982 18.2018 12.0716 18.303C11.7932 18.4051 11.4925 18.4603 11.1796 18.4603C10.8405 18.4603 10.5155 18.3957 10.2184 18.2768C10.6612 19.72 11.981 20.7783 13.5539 20.8251C12.5928 21.8263 11.2431 22.4482 9.74954 22.4482C8.8211 22.4482 7.94871 22.2075 7.19214 21.786C9.01072 23.3641 11.3823 24.3175 13.9761 24.3175C19.7083 24.3175 24.3542 19.6591 24.3542 13.9115C24.3542 13.5949 24.3403 13.2821 24.3122 12.9731C25.2603 12.5975 26.0122 11.8305 26.368 10.8686L26.369 10.8677Z" fill="#98A2B3"/>
</g>
</svg>
